<mxfile host="app.diagrams.net" modified="2022-05-20T13:09:44.278Z" agent="5.0 (X11; Linux x86_64) AppleWebKit/537.36 (KHTML, like Gecko) Chrome/101.0.4951.64 Safari/537.36" etag="_HDmBevGQWHhRSrPFVQX" version="18.0.8" type="github" pages="4">
  <diagram id="prtHgNgQTEPvFCAcTncT" name="Booking">
    <mxGraphModel dx="924" dy="748" grid="1" gridSize="10" guides="1" tooltips="1" connect="1" arrows="1" fold="1" page="1" pageScale="1" pageWidth="827" pageHeight="1169" math="0" shadow="0">
      <root>
        <mxCell id="0" />
        <mxCell id="1" parent="0" />
        <mxCell id="Y9b4Z3o9En6oE_J5yfvX-1" value="Search and Book a Coworking Space" style="swimlane;childLayout=stackLayout;resizeParent=1;resizeParentMax=0;startSize=30;swimlaneFillColor=none;gradientColor=none;rounded=1;fillColor=#283592;fontColor=#FFFFFF;strokeColor=#283592;fontSize=16;" parent="1" vertex="1">
          <mxGeometry x="10" y="25" width="806" height="1135" as="geometry" />
        </mxCell>
        <mxCell id="Y9b4Z3o9En6oE_J5yfvX-2" value="User" style="swimlane;startSize=20;rounded=1;strokeColor=#283592;fontColor=#283592;fontSize=14;" parent="Y9b4Z3o9En6oE_J5yfvX-1" vertex="1">
          <mxGeometry y="30" width="200" height="1105" as="geometry" />
        </mxCell>
        <mxCell id="SBwuihwLTVM8k1IBvn76-6" style="edgeStyle=orthogonalEdgeStyle;rounded=0;orthogonalLoop=1;jettySize=auto;html=1;exitX=0.5;exitY=1;exitDx=0;exitDy=0;entryX=0.5;entryY=0;entryDx=0;entryDy=0;fontColor=#283592;strokeColor=#283592;" parent="Y9b4Z3o9En6oE_J5yfvX-2" source="JYSIa6xG7unAo9f5RrJn-1" target="SBwuihwLTVM8k1IBvn76-2" edge="1">
          <mxGeometry relative="1" as="geometry" />
        </mxCell>
        <mxCell id="JYSIa6xG7unAo9f5RrJn-1" value="" style="ellipse;fillColor=#283592;strokeColor=none;fontSize=14;fontColor=#283592;aspect=fixed;" parent="Y9b4Z3o9En6oE_J5yfvX-2" vertex="1">
          <mxGeometry x="90" y="40" width="20" height="20" as="geometry" />
        </mxCell>
        <mxCell id="SBwuihwLTVM8k1IBvn76-4" value="" style="edgeStyle=orthogonalEdgeStyle;rounded=0;orthogonalLoop=1;jettySize=auto;html=1;fontColor=#283592;strokeColor=#283592;" parent="Y9b4Z3o9En6oE_J5yfvX-2" source="SBwuihwLTVM8k1IBvn76-2" target="SBwuihwLTVM8k1IBvn76-3" edge="1">
          <mxGeometry relative="1" as="geometry" />
        </mxCell>
        <mxCell id="SBwuihwLTVM8k1IBvn76-2" value="Search for a Space" style="rounded=1;whiteSpace=wrap;html=1;strokeColor=#283592;fontColor=#283592;" parent="Y9b4Z3o9En6oE_J5yfvX-2" vertex="1">
          <mxGeometry x="40" y="90" width="120" height="40" as="geometry" />
        </mxCell>
        <mxCell id="SBwuihwLTVM8k1IBvn76-3" value="Query" style="rounded=0;whiteSpace=wrap;html=1;fontColor=#283592;strokeColor=#283592;" parent="Y9b4Z3o9En6oE_J5yfvX-2" vertex="1">
          <mxGeometry x="40" y="150" width="120" height="40" as="geometry" />
        </mxCell>
        <mxCell id="SBwuihwLTVM8k1IBvn76-14" style="edgeStyle=orthogonalEdgeStyle;rounded=0;orthogonalLoop=1;jettySize=auto;html=1;exitX=0.5;exitY=1;exitDx=0;exitDy=0;entryX=0.5;entryY=0;entryDx=0;entryDy=0;fontColor=#283592;strokeColor=#283592;" parent="Y9b4Z3o9En6oE_J5yfvX-2" source="SBwuihwLTVM8k1IBvn76-11" target="SBwuihwLTVM8k1IBvn76-13" edge="1">
          <mxGeometry relative="1" as="geometry" />
        </mxCell>
        <mxCell id="SBwuihwLTVM8k1IBvn76-18" style="edgeStyle=orthogonalEdgeStyle;rounded=0;orthogonalLoop=1;jettySize=auto;html=1;exitX=1;exitY=0.5;exitDx=0;exitDy=0;entryX=0.5;entryY=0;entryDx=0;entryDy=0;fontColor=#283592;strokeColor=#283592;" parent="Y9b4Z3o9En6oE_J5yfvX-2" source="SBwuihwLTVM8k1IBvn76-11" target="SBwuihwLTVM8k1IBvn76-17" edge="1">
          <mxGeometry relative="1" as="geometry">
            <Array as="points">
              <mxPoint x="176" y="250" />
              <mxPoint x="176" y="350" />
              <mxPoint x="100" y="350" />
            </Array>
          </mxGeometry>
        </mxCell>
        <mxCell id="SBwuihwLTVM8k1IBvn76-11" value="Relevant ?" style="rhombus;whiteSpace=wrap;html=1;fontColor=#283592;strokeColor=#283592;" parent="Y9b4Z3o9En6oE_J5yfvX-2" vertex="1">
          <mxGeometry x="60" y="235" width="80" height="30" as="geometry" />
        </mxCell>
        <mxCell id="SBwuihwLTVM8k1IBvn76-16" style="edgeStyle=orthogonalEdgeStyle;rounded=0;orthogonalLoop=1;jettySize=auto;html=1;exitX=0;exitY=0.5;exitDx=0;exitDy=0;entryX=0;entryY=0.5;entryDx=0;entryDy=0;fontColor=#283592;strokeColor=#283592;" parent="Y9b4Z3o9En6oE_J5yfvX-2" source="SBwuihwLTVM8k1IBvn76-13" target="SBwuihwLTVM8k1IBvn76-3" edge="1">
          <mxGeometry relative="1" as="geometry" />
        </mxCell>
        <mxCell id="SBwuihwLTVM8k1IBvn76-13" value="Applying filters" style="rounded=1;whiteSpace=wrap;html=1;strokeColor=#283592;fontColor=#283592;" parent="Y9b4Z3o9En6oE_J5yfvX-2" vertex="1">
          <mxGeometry x="40" y="290" width="120" height="40" as="geometry" />
        </mxCell>
        <mxCell id="SBwuihwLTVM8k1IBvn76-17" value="Select a result" style="rounded=1;whiteSpace=wrap;html=1;strokeColor=#283592;fontColor=#283592;" parent="Y9b4Z3o9En6oE_J5yfvX-2" vertex="1">
          <mxGeometry x="40" y="370" width="120" height="40" as="geometry" />
        </mxCell>
        <mxCell id="SBwuihwLTVM8k1IBvn76-25" style="edgeStyle=orthogonalEdgeStyle;rounded=0;orthogonalLoop=1;jettySize=auto;html=1;exitX=0.5;exitY=1;exitDx=0;exitDy=0;entryX=0.5;entryY=0;entryDx=0;entryDy=0;fontColor=#283592;strokeColor=#283592;" parent="Y9b4Z3o9En6oE_J5yfvX-2" source="SBwuihwLTVM8k1IBvn76-21" target="SBwuihwLTVM8k1IBvn76-24" edge="1">
          <mxGeometry relative="1" as="geometry" />
        </mxCell>
        <mxCell id="SBwuihwLTVM8k1IBvn76-21" value="Observe information about space" style="rounded=1;whiteSpace=wrap;html=1;strokeColor=#283592;fontColor=#283592;" parent="Y9b4Z3o9En6oE_J5yfvX-2" vertex="1">
          <mxGeometry x="40" y="450" width="120" height="40" as="geometry" />
        </mxCell>
        <mxCell id="SBwuihwLTVM8k1IBvn76-26" style="edgeStyle=orthogonalEdgeStyle;rounded=0;orthogonalLoop=1;jettySize=auto;html=1;exitX=0;exitY=0.5;exitDx=0;exitDy=0;entryX=0;entryY=0.5;entryDx=0;entryDy=0;fontColor=#283592;strokeColor=#283592;" parent="Y9b4Z3o9En6oE_J5yfvX-2" source="SBwuihwLTVM8k1IBvn76-24" target="SBwuihwLTVM8k1IBvn76-17" edge="1">
          <mxGeometry relative="1" as="geometry" />
        </mxCell>
        <mxCell id="SBwuihwLTVM8k1IBvn76-32" style="edgeStyle=orthogonalEdgeStyle;rounded=0;orthogonalLoop=1;jettySize=auto;html=1;exitX=0.5;exitY=1;exitDx=0;exitDy=0;entryX=0.5;entryY=0;entryDx=0;entryDy=0;fontColor=#283592;strokeColor=#283592;" parent="Y9b4Z3o9En6oE_J5yfvX-2" source="SBwuihwLTVM8k1IBvn76-24" target="SBwuihwLTVM8k1IBvn76-31" edge="1">
          <mxGeometry relative="1" as="geometry" />
        </mxCell>
        <mxCell id="SBwuihwLTVM8k1IBvn76-24" value="Satisfactory ?" style="rhombus;whiteSpace=wrap;html=1;fontColor=#283592;strokeColor=#283592;aspect=fixed;" parent="Y9b4Z3o9En6oE_J5yfvX-2" vertex="1">
          <mxGeometry x="60" y="530" width="80" height="40" as="geometry" />
        </mxCell>
        <mxCell id="SBwuihwLTVM8k1IBvn76-27" value="Yes" style="text;html=1;strokeColor=none;fillColor=none;align=center;verticalAlign=middle;whiteSpace=wrap;rounded=0;fontColor=#283592;" parent="Y9b4Z3o9En6oE_J5yfvX-2" vertex="1">
          <mxGeometry x="136" y="230" width="24" height="20" as="geometry" />
        </mxCell>
        <mxCell id="SBwuihwLTVM8k1IBvn76-28" value="No" style="text;html=1;strokeColor=none;fillColor=none;align=center;verticalAlign=middle;whiteSpace=wrap;rounded=0;fontColor=#283592;" parent="Y9b4Z3o9En6oE_J5yfvX-2" vertex="1">
          <mxGeometry x="76" y="265" width="24" height="20" as="geometry" />
        </mxCell>
        <mxCell id="SBwuihwLTVM8k1IBvn76-29" value="No" style="text;html=1;strokeColor=none;fillColor=none;align=center;verticalAlign=middle;whiteSpace=wrap;rounded=0;fontColor=#283592;" parent="Y9b4Z3o9En6oE_J5yfvX-2" vertex="1">
          <mxGeometry x="40" y="530" width="24" height="20" as="geometry" />
        </mxCell>
        <mxCell id="SBwuihwLTVM8k1IBvn76-30" value="Yes" style="text;html=1;strokeColor=none;fillColor=none;align=center;verticalAlign=middle;whiteSpace=wrap;rounded=0;fontColor=#283592;" parent="Y9b4Z3o9En6oE_J5yfvX-2" vertex="1">
          <mxGeometry x="100" y="570" width="24" height="20" as="geometry" />
        </mxCell>
        <mxCell id="SBwuihwLTVM8k1IBvn76-34" style="edgeStyle=orthogonalEdgeStyle;rounded=0;orthogonalLoop=1;jettySize=auto;html=1;exitX=0.5;exitY=1;exitDx=0;exitDy=0;entryX=0.5;entryY=0;entryDx=0;entryDy=0;fontColor=#283592;strokeColor=#283592;" parent="Y9b4Z3o9En6oE_J5yfvX-2" source="SBwuihwLTVM8k1IBvn76-31" target="SBwuihwLTVM8k1IBvn76-33" edge="1">
          <mxGeometry relative="1" as="geometry" />
        </mxCell>
        <mxCell id="SBwuihwLTVM8k1IBvn76-31" value="Select booking specifications" style="rounded=1;whiteSpace=wrap;html=1;strokeColor=#283592;fontColor=#283592;" parent="Y9b4Z3o9En6oE_J5yfvX-2" vertex="1">
          <mxGeometry x="40" y="610" width="120" height="40" as="geometry" />
        </mxCell>
        <mxCell id="SBwuihwLTVM8k1IBvn76-33" value="Proceed to checkout" style="rounded=1;whiteSpace=wrap;html=1;strokeColor=#283592;fontColor=#283592;" parent="Y9b4Z3o9En6oE_J5yfvX-2" vertex="1">
          <mxGeometry x="40" y="690" width="120" height="40" as="geometry" />
        </mxCell>
        <mxCell id="SBwuihwLTVM8k1IBvn76-42" style="edgeStyle=orthogonalEdgeStyle;rounded=0;orthogonalLoop=1;jettySize=auto;html=1;exitX=0.5;exitY=1;exitDx=0;exitDy=0;entryX=0.5;entryY=0;entryDx=0;entryDy=0;fontColor=#283592;strokeColor=#283592;" parent="Y9b4Z3o9En6oE_J5yfvX-2" source="SBwuihwLTVM8k1IBvn76-39" target="SBwuihwLTVM8k1IBvn76-41" edge="1">
          <mxGeometry relative="1" as="geometry" />
        </mxCell>
        <mxCell id="SBwuihwLTVM8k1IBvn76-39" value="Accept ?" style="rhombus;whiteSpace=wrap;html=1;fontColor=#283592;strokeColor=#283592;aspect=fixed;" parent="Y9b4Z3o9En6oE_J5yfvX-2" vertex="1">
          <mxGeometry x="60" y="770" width="80" height="40" as="geometry" />
        </mxCell>
        <mxCell id="SBwuihwLTVM8k1IBvn76-41" value="Pays" style="rounded=1;whiteSpace=wrap;html=1;strokeColor=#283592;fontColor=#283592;" parent="Y9b4Z3o9En6oE_J5yfvX-2" vertex="1">
          <mxGeometry x="40" y="850" width="120" height="40" as="geometry" />
        </mxCell>
        <mxCell id="SBwuihwLTVM8k1IBvn76-43" value="Yes" style="text;html=1;strokeColor=none;fillColor=none;align=center;verticalAlign=middle;whiteSpace=wrap;rounded=0;fontColor=#283592;" parent="Y9b4Z3o9En6oE_J5yfvX-2" vertex="1">
          <mxGeometry x="100" y="810" width="24" height="20" as="geometry" />
        </mxCell>
        <mxCell id="SBwuihwLTVM8k1IBvn76-44" value="No" style="text;html=1;strokeColor=none;fillColor=none;align=center;verticalAlign=middle;whiteSpace=wrap;rounded=0;fontColor=#283592;" parent="Y9b4Z3o9En6oE_J5yfvX-2" vertex="1">
          <mxGeometry x="40" y="770" width="24" height="20" as="geometry" />
        </mxCell>
        <mxCell id="SBwuihwLTVM8k1IBvn76-80" value="Confirmation" style="html=1;shape=mxgraph.infographic.ribbonSimple;notch1=20;notch2=0;align=center;verticalAlign=middle;fontSize=14;fontStyle=0;flipH=1;fillColor=#FFFFFF;fontColor=#283592;strokeColor=#283592;" parent="Y9b4Z3o9En6oE_J5yfvX-2" vertex="1">
          <mxGeometry x="40" y="910" width="120" height="40" as="geometry" />
        </mxCell>
        <mxCell id="Y9b4Z3o9En6oE_J5yfvX-3" value="CoworkClub" style="swimlane;startSize=20;rounded=1;fontColor=#E01B84;strokeColor=#283592;fontSize=14;" parent="Y9b4Z3o9En6oE_J5yfvX-1" vertex="1">
          <mxGeometry x="200" y="30" width="206" height="1105" as="geometry" />
        </mxCell>
        <mxCell id="SBwuihwLTVM8k1IBvn76-8" value="Retrieve matching results" style="rounded=1;whiteSpace=wrap;html=1;strokeColor=#E01B84;fontColor=#283592;" parent="Y9b4Z3o9En6oE_J5yfvX-3" vertex="1">
          <mxGeometry x="46" y="90" width="120" height="40" as="geometry" />
        </mxCell>
        <mxCell id="SBwuihwLTVM8k1IBvn76-19" value="Retrieve information about space" style="rounded=1;whiteSpace=wrap;html=1;strokeColor=#E01B84;fontColor=#283592;" parent="Y9b4Z3o9En6oE_J5yfvX-3" vertex="1">
          <mxGeometry x="46" y="250" width="120" height="40" as="geometry" />
        </mxCell>
        <mxCell id="SBwuihwLTVM8k1IBvn76-38" style="edgeStyle=orthogonalEdgeStyle;rounded=0;orthogonalLoop=1;jettySize=auto;html=1;exitX=0.5;exitY=1;exitDx=0;exitDy=0;entryX=0.5;entryY=0;entryDx=0;entryDy=0;fontColor=#283592;strokeColor=#E01B84;" parent="Y9b4Z3o9En6oE_J5yfvX-3" source="SBwuihwLTVM8k1IBvn76-35" target="SBwuihwLTVM8k1IBvn76-37" edge="1">
          <mxGeometry relative="1" as="geometry" />
        </mxCell>
        <mxCell id="SBwuihwLTVM8k1IBvn76-35" value="Reserves selected date, time and space" style="rounded=1;whiteSpace=wrap;html=1;strokeColor=#E01B84;fontColor=#283592;" parent="Y9b4Z3o9En6oE_J5yfvX-3" vertex="1">
          <mxGeometry x="46" y="325" width="120" height="40" as="geometry" />
        </mxCell>
        <mxCell id="SBwuihwLTVM8k1IBvn76-37" value="Retrieve payment information" style="rounded=1;whiteSpace=wrap;html=1;strokeColor=#E01B84;fontColor=#283592;" parent="Y9b4Z3o9En6oE_J5yfvX-3" vertex="1">
          <mxGeometry x="45" y="405" width="120" height="40" as="geometry" />
        </mxCell>
        <mxCell id="SBwuihwLTVM8k1IBvn76-60" style="edgeStyle=orthogonalEdgeStyle;rounded=0;orthogonalLoop=1;jettySize=auto;html=1;exitX=0;exitY=0;exitDx=60;exitDy=40;exitPerimeter=0;entryX=0.5;entryY=0;entryDx=0;entryDy=0;fontSize=14;fontColor=#283592;strokeColor=#E01B84;" parent="Y9b4Z3o9En6oE_J5yfvX-3" source="SBwuihwLTVM8k1IBvn76-57" target="SBwuihwLTVM8k1IBvn76-59" edge="1">
          <mxGeometry relative="1" as="geometry" />
        </mxCell>
        <mxCell id="SBwuihwLTVM8k1IBvn76-57" value="Confirmation" style="html=1;shape=mxgraph.infographic.ribbonSimple;notch1=20;notch2=0;align=center;verticalAlign=middle;fontSize=14;fontStyle=0;flipH=1;fillColor=#FFFFFF;fontColor=#283592;strokeColor=#E01B84;" parent="Y9b4Z3o9En6oE_J5yfvX-3" vertex="1">
          <mxGeometry x="46" y="630" width="120" height="40" as="geometry" />
        </mxCell>
        <mxCell id="SBwuihwLTVM8k1IBvn76-59" value="Informs of booking info" style="rounded=1;whiteSpace=wrap;html=1;strokeColor=#E01B84;fontColor=#283592;" parent="Y9b4Z3o9En6oE_J5yfvX-3" vertex="1">
          <mxGeometry x="46" y="710" width="120" height="40" as="geometry" />
        </mxCell>
        <mxCell id="SBwuihwLTVM8k1IBvn76-68" style="edgeStyle=orthogonalEdgeStyle;rounded=0;orthogonalLoop=1;jettySize=auto;html=1;exitX=0;exitY=0;exitDx=60;exitDy=40;exitPerimeter=0;entryX=0.017;entryY=0.499;entryDx=0;entryDy=0;entryPerimeter=0;fontSize=14;fontColor=#283592;strokeColor=#E01B84;" parent="Y9b4Z3o9En6oE_J5yfvX-3" source="SBwuihwLTVM8k1IBvn76-65" target="SBwuihwLTVM8k1IBvn76-67" edge="1">
          <mxGeometry relative="1" as="geometry" />
        </mxCell>
        <mxCell id="SBwuihwLTVM8k1IBvn76-65" value="Confirmation" style="html=1;shape=mxgraph.infographic.ribbonSimple;notch1=20;notch2=0;align=center;verticalAlign=middle;fontSize=14;fontStyle=0;flipH=1;fillColor=#FFFFFF;fontColor=#283592;strokeColor=#E01B84;" parent="Y9b4Z3o9En6oE_J5yfvX-3" vertex="1">
          <mxGeometry x="46" y="790" width="120" height="40" as="geometry" />
        </mxCell>
        <mxCell id="SBwuihwLTVM8k1IBvn76-67" value="" style="html=1;points=[];perimeter=orthogonalPerimeter;fillColor=#E01B84;strokeColor=none;fontSize=14;fontColor=#E01B84;rotation=90;" parent="Y9b4Z3o9En6oE_J5yfvX-3" vertex="1">
          <mxGeometry x="103.5" y="830" width="5" height="120" as="geometry" />
        </mxCell>
        <mxCell id="SBwuihwLTVM8k1IBvn76-69" value="Booked" style="html=1;shape=mxgraph.infographic.ribbonSimple;notch1=0;notch2=20;align=center;verticalAlign=middle;fontSize=14;fontStyle=0;fillColor=#FFFFFF;fontColor=#283592;strokeColor=#E01B84;" parent="Y9b4Z3o9En6oE_J5yfvX-3" vertex="1">
          <mxGeometry x="16" y="910" width="74" height="40" as="geometry" />
        </mxCell>
        <mxCell id="SBwuihwLTVM8k1IBvn76-70" value="" style="endArrow=classic;html=1;rounded=0;fontSize=14;fontColor=#E01B84;strokeColor=#E01B84;entryX=0;entryY=0;entryDx=40.5;entryDy=0;entryPerimeter=0;exitX=0.994;exitY=0.912;exitDx=0;exitDy=0;exitPerimeter=0;" parent="Y9b4Z3o9En6oE_J5yfvX-3" source="SBwuihwLTVM8k1IBvn76-67" target="SBwuihwLTVM8k1IBvn76-69" edge="1">
          <mxGeometry width="50" height="50" relative="1" as="geometry">
            <mxPoint x="86" y="950" as="sourcePoint" />
            <mxPoint x="136" y="900" as="targetPoint" />
          </mxGeometry>
        </mxCell>
        <mxCell id="SBwuihwLTVM8k1IBvn76-71" value="Pay service provider" style="rounded=1;whiteSpace=wrap;html=1;strokeColor=#E01B84;fontColor=#283592;" parent="Y9b4Z3o9En6oE_J5yfvX-3" vertex="1">
          <mxGeometry x="116" y="910" width="76" height="40" as="geometry" />
        </mxCell>
        <mxCell id="SBwuihwLTVM8k1IBvn76-73" value="" style="endArrow=classic;html=1;rounded=0;fontSize=14;fontColor=#E01B84;strokeColor=#E01B84;entryX=0.5;entryY=0;entryDx=0;entryDy=0;exitX=0.988;exitY=0.099;exitDx=0;exitDy=0;exitPerimeter=0;" parent="Y9b4Z3o9En6oE_J5yfvX-3" source="SBwuihwLTVM8k1IBvn76-67" target="SBwuihwLTVM8k1IBvn76-71" edge="1">
          <mxGeometry width="50" height="50" relative="1" as="geometry">
            <mxPoint x="105.93999999999994" y="950" as="sourcePoint" />
            <mxPoint x="105.88" y="967.53" as="targetPoint" />
          </mxGeometry>
        </mxCell>
        <mxCell id="SBwuihwLTVM8k1IBvn76-83" style="edgeStyle=orthogonalEdgeStyle;rounded=0;orthogonalLoop=1;jettySize=auto;html=1;exitX=0.5;exitY=1;exitDx=0;exitDy=0;entryX=-0.045;entryY=0.5;entryDx=0;entryDy=0;fontSize=14;fontColor=#E01B84;strokeColor=#E01B84;entryPerimeter=0;" parent="Y9b4Z3o9En6oE_J5yfvX-3" source="SBwuihwLTVM8k1IBvn76-74" target="UYK-7qxF8x5jv9WJo-W0-1" edge="1">
          <mxGeometry relative="1" as="geometry" />
        </mxCell>
        <mxCell id="SBwuihwLTVM8k1IBvn76-74" value="Update Space availability" style="rounded=1;whiteSpace=wrap;html=1;strokeColor=#E01B84;fontColor=#283592;" parent="Y9b4Z3o9En6oE_J5yfvX-3" vertex="1">
          <mxGeometry x="41" y="970" width="124" height="40" as="geometry" />
        </mxCell>
        <mxCell id="SBwuihwLTVM8k1IBvn76-75" value="" style="endArrow=classic;html=1;rounded=0;fontSize=14;fontColor=#E01B84;strokeColor=#E01B84;exitX=0.967;exitY=0.5;exitDx=0;exitDy=0;exitPerimeter=0;entryX=0.523;entryY=0.006;entryDx=0;entryDy=0;entryPerimeter=0;" parent="Y9b4Z3o9En6oE_J5yfvX-3" source="SBwuihwLTVM8k1IBvn76-67" target="SBwuihwLTVM8k1IBvn76-74" edge="1">
          <mxGeometry width="50" height="50" relative="1" as="geometry">
            <mxPoint x="106.05999999999995" y="899.9999999999998" as="sourcePoint" />
            <mxPoint x="106" y="950" as="targetPoint" />
          </mxGeometry>
        </mxCell>
        <mxCell id="SBwuihwLTVM8k1IBvn76-79" value="" style="ellipse;html=1;shape=endState;fillColor=#283592;strokeColor=#E01B84;fontSize=14;fontColor=#E01B84;" parent="Y9b4Z3o9En6oE_J5yfvX-3" vertex="1">
          <mxGeometry x="90" y="1060" width="30" height="30" as="geometry" />
        </mxCell>
        <mxCell id="UYK-7qxF8x5jv9WJo-W0-1" value="" style="html=1;points=[];perimeter=orthogonalPerimeter;fillColor=#E01B84;strokeColor=none;fontSize=14;fontColor=#E01B84;rotation=90;" parent="Y9b4Z3o9En6oE_J5yfvX-3" vertex="1">
          <mxGeometry x="100.5" y="979" width="5" height="120" as="geometry" />
        </mxCell>
        <mxCell id="UYK-7qxF8x5jv9WJo-W0-3" style="edgeStyle=orthogonalEdgeStyle;rounded=0;orthogonalLoop=1;jettySize=auto;html=1;exitX=1.213;exitY=0.474;exitDx=0;exitDy=0;entryX=0.5;entryY=0;entryDx=0;entryDy=0;fontSize=14;fontColor=#E01B84;strokeColor=#E01B84;exitPerimeter=0;" parent="Y9b4Z3o9En6oE_J5yfvX-3" source="UYK-7qxF8x5jv9WJo-W0-1" target="SBwuihwLTVM8k1IBvn76-79" edge="1">
          <mxGeometry relative="1" as="geometry">
            <mxPoint x="113.00000000000011" y="1020" as="sourcePoint" />
            <mxPoint x="112.99999999999989" y="1037.275" as="targetPoint" />
          </mxGeometry>
        </mxCell>
        <mxCell id="ucHowXHDUnCpZmRlBpM0-2" style="edgeStyle=orthogonalEdgeStyle;rounded=0;orthogonalLoop=1;jettySize=auto;html=1;exitX=0.5;exitY=1;exitDx=0;exitDy=0;entryX=0.5;entryY=0;entryDx=0;entryDy=0;strokeColor=#283592;" parent="Y9b4Z3o9En6oE_J5yfvX-3" source="ucHowXHDUnCpZmRlBpM0-1" target="SBwuihwLTVM8k1IBvn76-76" edge="1">
          <mxGeometry relative="1" as="geometry" />
        </mxCell>
        <mxCell id="ucHowXHDUnCpZmRlBpM0-1" value="Date, time and space made available" style="rounded=1;whiteSpace=wrap;html=1;strokeColor=#E01B84;fontColor=#283592;" parent="Y9b4Z3o9En6oE_J5yfvX-3" vertex="1">
          <mxGeometry x="46" y="505" width="120" height="40" as="geometry" />
        </mxCell>
        <mxCell id="SBwuihwLTVM8k1IBvn76-76" value="" style="shape=sumEllipse;perimeter=ellipsePerimeter;whiteSpace=wrap;html=1;backgroundOutline=1;fontSize=14;fontColor=#E01B84;strokeColor=#283592;fillColor=#FFFFFF;" parent="Y9b4Z3o9En6oE_J5yfvX-3" vertex="1">
          <mxGeometry x="91" y="565" width="30" height="30" as="geometry" />
        </mxCell>
        <mxCell id="SBwuihwLTVM8k1IBvn76-45" value="Payment Service Provider" style="swimlane;startSize=20;rounded=1;fontColor=#283592;strokeColor=#283592;fontSize=14;" parent="Y9b4Z3o9En6oE_J5yfvX-1" vertex="1">
          <mxGeometry x="406" y="30" width="200" height="1105" as="geometry" />
        </mxCell>
        <mxCell id="SBwuihwLTVM8k1IBvn76-52" style="edgeStyle=orthogonalEdgeStyle;rounded=0;orthogonalLoop=1;jettySize=auto;html=1;exitX=0.5;exitY=1;exitDx=0;exitDy=0;entryX=0.5;entryY=0;entryDx=0;entryDy=0;fontSize=14;fontColor=#283592;strokeColor=#283592;" parent="SBwuihwLTVM8k1IBvn76-45" source="SBwuihwLTVM8k1IBvn76-49" target="SBwuihwLTVM8k1IBvn76-51" edge="1">
          <mxGeometry relative="1" as="geometry" />
        </mxCell>
        <mxCell id="SBwuihwLTVM8k1IBvn76-49" value="Receives payment request" style="rounded=1;whiteSpace=wrap;html=1;strokeColor=#283592;fontColor=#283592;" parent="SBwuihwLTVM8k1IBvn76-45" vertex="1">
          <mxGeometry x="39" y="90" width="120" height="40" as="geometry" />
        </mxCell>
        <mxCell id="SBwuihwLTVM8k1IBvn76-50" value="Received" style="html=1;shape=mxgraph.infographic.ribbonSimple;notch1=0;notch2=20;align=center;verticalAlign=middle;fontSize=14;fontStyle=0;fillColor=#FFFFFF;fontColor=#283592;strokeColor=#283592;" parent="SBwuihwLTVM8k1IBvn76-45" vertex="1">
          <mxGeometry x="40" y="210" width="120" height="40" as="geometry" />
        </mxCell>
        <mxCell id="SBwuihwLTVM8k1IBvn76-53" style="edgeStyle=orthogonalEdgeStyle;rounded=0;orthogonalLoop=1;jettySize=auto;html=1;exitX=0.5;exitY=1;exitDx=0;exitDy=0;entryX=0.502;entryY=-0.001;entryDx=0;entryDy=0;entryPerimeter=0;fontSize=14;fontColor=#283592;strokeColor=#283592;" parent="SBwuihwLTVM8k1IBvn76-45" source="SBwuihwLTVM8k1IBvn76-51" target="SBwuihwLTVM8k1IBvn76-50" edge="1">
          <mxGeometry relative="1" as="geometry" />
        </mxCell>
        <mxCell id="SBwuihwLTVM8k1IBvn76-51" value="Accepted ?" style="rhombus;whiteSpace=wrap;html=1;fontColor=#283592;strokeColor=#283592;aspect=fixed;" parent="SBwuihwLTVM8k1IBvn76-45" vertex="1">
          <mxGeometry x="60" y="155" width="80" height="30" as="geometry" />
        </mxCell>
        <mxCell id="SBwuihwLTVM8k1IBvn76-54" value="Yes" style="text;html=1;strokeColor=none;fillColor=none;align=center;verticalAlign=middle;whiteSpace=wrap;rounded=0;fontColor=#283592;" parent="SBwuihwLTVM8k1IBvn76-45" vertex="1">
          <mxGeometry x="76" y="180" width="24" height="20" as="geometry" />
        </mxCell>
        <mxCell id="SBwuihwLTVM8k1IBvn76-78" value="No" style="text;html=1;strokeColor=none;fillColor=none;align=center;verticalAlign=middle;whiteSpace=wrap;rounded=0;fontColor=#283592;" parent="SBwuihwLTVM8k1IBvn76-45" vertex="1">
          <mxGeometry x="39" y="155" width="24" height="20" as="geometry" />
        </mxCell>
        <mxCell id="SBwuihwLTVM8k1IBvn76-89" style="edgeStyle=orthogonalEdgeStyle;rounded=0;orthogonalLoop=1;jettySize=auto;html=1;exitX=0.5;exitY=1;exitDx=0;exitDy=0;entryX=0.499;entryY=-0.027;entryDx=0;entryDy=0;entryPerimeter=0;fontSize=14;fontColor=#E01B84;strokeColor=#283592;" parent="SBwuihwLTVM8k1IBvn76-45" source="SBwuihwLTVM8k1IBvn76-84" target="SBwuihwLTVM8k1IBvn76-85" edge="1">
          <mxGeometry relative="1" as="geometry" />
        </mxCell>
        <mxCell id="SBwuihwLTVM8k1IBvn76-84" value="Receives payment request" style="rounded=1;whiteSpace=wrap;html=1;strokeColor=#283592;fontColor=#283592;" parent="SBwuihwLTVM8k1IBvn76-45" vertex="1">
          <mxGeometry x="39" y="910" width="120" height="40" as="geometry" />
        </mxCell>
        <mxCell id="SBwuihwLTVM8k1IBvn76-85" value="Received" style="html=1;shape=mxgraph.infographic.ribbonSimple;notch1=0;notch2=20;align=center;verticalAlign=middle;fontSize=14;fontStyle=0;fillColor=#FFFFFF;fontColor=#283592;strokeColor=#283592;" parent="SBwuihwLTVM8k1IBvn76-45" vertex="1">
          <mxGeometry x="39" y="970" width="120" height="40" as="geometry" />
        </mxCell>
        <mxCell id="Y9b4Z3o9En6oE_J5yfvX-4" value="Space Provider" style="swimlane;startSize=20;rounded=1;fontColor=#283592;strokeColor=#283592;fontSize=14;" parent="Y9b4Z3o9En6oE_J5yfvX-1" vertex="1">
          <mxGeometry x="606" y="30" width="200" height="1105" as="geometry" />
        </mxCell>
        <mxCell id="SBwuihwLTVM8k1IBvn76-64" style="edgeStyle=orthogonalEdgeStyle;rounded=0;orthogonalLoop=1;jettySize=auto;html=1;exitX=0.5;exitY=1;exitDx=0;exitDy=0;entryX=0.496;entryY=0.014;entryDx=0;entryDy=0;entryPerimeter=0;fontSize=14;fontColor=#283592;strokeColor=#283592;" parent="Y9b4Z3o9En6oE_J5yfvX-4" source="SBwuihwLTVM8k1IBvn76-61" target="SBwuihwLTVM8k1IBvn76-63" edge="1">
          <mxGeometry relative="1" as="geometry" />
        </mxCell>
        <mxCell id="SBwuihwLTVM8k1IBvn76-61" value="Registers the new booking" style="rounded=1;whiteSpace=wrap;html=1;strokeColor=#283592;fontColor=#283592;" parent="Y9b4Z3o9En6oE_J5yfvX-4" vertex="1">
          <mxGeometry x="40" y="90" width="120" height="40" as="geometry" />
        </mxCell>
        <mxCell id="SBwuihwLTVM8k1IBvn76-63" value="Registered" style="html=1;shape=mxgraph.infographic.ribbonSimple;notch1=0;notch2=20;align=center;verticalAlign=middle;fontSize=14;fontStyle=0;fillColor=#FFFFFF;fontColor=#283592;strokeColor=#283592;" parent="Y9b4Z3o9En6oE_J5yfvX-4" vertex="1">
          <mxGeometry x="40" y="170" width="120" height="40" as="geometry" />
        </mxCell>
        <mxCell id="SBwuihwLTVM8k1IBvn76-90" value="Payment&lt;br&gt;Receiver" style="html=1;shape=mxgraph.infographic.ribbonSimple;notch1=20;notch2=0;align=center;verticalAlign=middle;fontSize=14;fontStyle=0;flipH=1;fillColor=#FFFFFF;fontColor=#283592;strokeColor=#283592;" parent="Y9b4Z3o9En6oE_J5yfvX-4" vertex="1">
          <mxGeometry x="40" y="250" width="120" height="40" as="geometry" />
        </mxCell>
        <mxCell id="SBwuihwLTVM8k1IBvn76-9" style="edgeStyle=orthogonalEdgeStyle;rounded=0;orthogonalLoop=1;jettySize=auto;html=1;exitX=1;exitY=0.5;exitDx=0;exitDy=0;entryX=0;entryY=0.5;entryDx=0;entryDy=0;fontColor=#283592;strokeColor=#283592;" parent="Y9b4Z3o9En6oE_J5yfvX-1" source="SBwuihwLTVM8k1IBvn76-3" target="SBwuihwLTVM8k1IBvn76-8" edge="1">
          <mxGeometry relative="1" as="geometry">
            <Array as="points">
              <mxPoint x="216" y="200" />
              <mxPoint x="216" y="140" />
            </Array>
          </mxGeometry>
        </mxCell>
        <mxCell id="SBwuihwLTVM8k1IBvn76-12" style="edgeStyle=orthogonalEdgeStyle;rounded=0;orthogonalLoop=1;jettySize=auto;html=1;exitX=0.5;exitY=1;exitDx=0;exitDy=0;entryX=0.5;entryY=0;entryDx=0;entryDy=0;fontColor=#283592;strokeColor=#E01B84;" parent="Y9b4Z3o9En6oE_J5yfvX-1" source="SBwuihwLTVM8k1IBvn76-8" target="SBwuihwLTVM8k1IBvn76-11" edge="1">
          <mxGeometry relative="1" as="geometry">
            <Array as="points">
              <mxPoint x="306" y="240" />
              <mxPoint x="100" y="240" />
            </Array>
          </mxGeometry>
        </mxCell>
        <mxCell id="SBwuihwLTVM8k1IBvn76-20" style="edgeStyle=orthogonalEdgeStyle;rounded=0;orthogonalLoop=1;jettySize=auto;html=1;exitX=1;exitY=0.5;exitDx=0;exitDy=0;entryX=0;entryY=0.5;entryDx=0;entryDy=0;fontColor=#283592;strokeColor=#283592;" parent="Y9b4Z3o9En6oE_J5yfvX-1" source="SBwuihwLTVM8k1IBvn76-17" target="SBwuihwLTVM8k1IBvn76-19" edge="1">
          <mxGeometry relative="1" as="geometry">
            <Array as="points">
              <mxPoint x="210" y="420" />
              <mxPoint x="210" y="300" />
            </Array>
          </mxGeometry>
        </mxCell>
        <mxCell id="SBwuihwLTVM8k1IBvn76-22" style="edgeStyle=orthogonalEdgeStyle;rounded=0;orthogonalLoop=1;jettySize=auto;html=1;exitX=0.5;exitY=1;exitDx=0;exitDy=0;entryX=0.5;entryY=0;entryDx=0;entryDy=0;fontColor=#283592;strokeColor=#E01B84;" parent="Y9b4Z3o9En6oE_J5yfvX-1" source="SBwuihwLTVM8k1IBvn76-19" target="SBwuihwLTVM8k1IBvn76-21" edge="1">
          <mxGeometry relative="1" as="geometry">
            <Array as="points">
              <mxPoint x="306" y="335" />
              <mxPoint x="220" y="335" />
              <mxPoint x="220" y="460" />
              <mxPoint x="100" y="460" />
            </Array>
          </mxGeometry>
        </mxCell>
        <mxCell id="SBwuihwLTVM8k1IBvn76-36" style="edgeStyle=orthogonalEdgeStyle;rounded=0;orthogonalLoop=1;jettySize=auto;html=1;exitX=1;exitY=0.5;exitDx=0;exitDy=0;entryX=0;entryY=0.5;entryDx=0;entryDy=0;fontColor=#283592;strokeColor=#283592;" parent="Y9b4Z3o9En6oE_J5yfvX-1" source="SBwuihwLTVM8k1IBvn76-33" target="SBwuihwLTVM8k1IBvn76-35" edge="1">
          <mxGeometry relative="1" as="geometry">
            <Array as="points">
              <mxPoint x="216" y="740" />
              <mxPoint x="216" y="475" />
              <mxPoint x="230" y="475" />
              <mxPoint x="230" y="375" />
            </Array>
          </mxGeometry>
        </mxCell>
        <mxCell id="SBwuihwLTVM8k1IBvn76-40" style="edgeStyle=orthogonalEdgeStyle;rounded=0;orthogonalLoop=1;jettySize=auto;html=1;exitX=0.5;exitY=1;exitDx=0;exitDy=0;entryX=0.5;entryY=0;entryDx=0;entryDy=0;fontColor=#283592;strokeColor=#E01B84;" parent="Y9b4Z3o9En6oE_J5yfvX-1" source="SBwuihwLTVM8k1IBvn76-37" target="SBwuihwLTVM8k1IBvn76-39" edge="1">
          <mxGeometry relative="1" as="geometry">
            <Array as="points">
              <mxPoint x="306" y="495" />
              <mxPoint x="226" y="495" />
              <mxPoint x="226" y="770" />
              <mxPoint x="100" y="770" />
            </Array>
          </mxGeometry>
        </mxCell>
        <mxCell id="SBwuihwLTVM8k1IBvn76-56" style="edgeStyle=orthogonalEdgeStyle;rounded=0;orthogonalLoop=1;jettySize=auto;html=1;exitX=1;exitY=0.5;exitDx=0;exitDy=0;entryX=0;entryY=0.5;entryDx=0;entryDy=0;fontSize=14;fontColor=#283592;strokeColor=#283592;" parent="Y9b4Z3o9En6oE_J5yfvX-1" source="SBwuihwLTVM8k1IBvn76-41" target="SBwuihwLTVM8k1IBvn76-49" edge="1">
          <mxGeometry relative="1" as="geometry">
            <Array as="points">
              <mxPoint x="236" y="900" />
              <mxPoint x="236" y="505" />
              <mxPoint x="416" y="505" />
              <mxPoint x="416" y="140" />
            </Array>
          </mxGeometry>
        </mxCell>
        <mxCell id="SBwuihwLTVM8k1IBvn76-58" style="edgeStyle=orthogonalEdgeStyle;rounded=0;orthogonalLoop=1;jettySize=auto;html=1;exitX=0.502;exitY=0.993;exitDx=0;exitDy=0;exitPerimeter=0;entryX=0;entryY=0;entryDx=60;entryDy=0;entryPerimeter=0;fontSize=14;fontColor=#283592;strokeColor=#283592;" parent="Y9b4Z3o9En6oE_J5yfvX-1" source="SBwuihwLTVM8k1IBvn76-50" target="SBwuihwLTVM8k1IBvn76-57" edge="1">
          <mxGeometry relative="1" as="geometry">
            <Array as="points">
              <mxPoint x="506" y="645" />
              <mxPoint x="306" y="645" />
            </Array>
          </mxGeometry>
        </mxCell>
        <mxCell id="SBwuihwLTVM8k1IBvn76-62" style="edgeStyle=orthogonalEdgeStyle;rounded=0;orthogonalLoop=1;jettySize=auto;html=1;exitX=1;exitY=0.5;exitDx=0;exitDy=0;entryX=0;entryY=0.5;entryDx=0;entryDy=0;fontSize=14;fontColor=#283592;strokeColor=#283592;" parent="Y9b4Z3o9En6oE_J5yfvX-1" source="SBwuihwLTVM8k1IBvn76-59" target="SBwuihwLTVM8k1IBvn76-61" edge="1">
          <mxGeometry relative="1" as="geometry">
            <Array as="points">
              <mxPoint x="616" y="760" />
              <mxPoint x="616" y="140" />
            </Array>
          </mxGeometry>
        </mxCell>
        <mxCell id="SBwuihwLTVM8k1IBvn76-66" style="edgeStyle=orthogonalEdgeStyle;rounded=0;orthogonalLoop=1;jettySize=auto;html=1;exitX=0;exitY=0;exitDx=0;exitDy=20;exitPerimeter=0;entryX=0;entryY=0;entryDx=20;entryDy=20;entryPerimeter=0;fontSize=14;fontColor=#283592;strokeColor=#283592;" parent="Y9b4Z3o9En6oE_J5yfvX-1" source="SBwuihwLTVM8k1IBvn76-63" target="SBwuihwLTVM8k1IBvn76-65" edge="1">
          <mxGeometry relative="1" as="geometry">
            <Array as="points">
              <mxPoint x="626" y="220" />
              <mxPoint x="626" y="840" />
              <mxPoint x="346" y="840" />
            </Array>
          </mxGeometry>
        </mxCell>
        <mxCell id="SBwuihwLTVM8k1IBvn76-81" style="edgeStyle=orthogonalEdgeStyle;rounded=0;orthogonalLoop=1;jettySize=auto;html=1;exitX=0;exitY=0;exitDx=0;exitDy=20;exitPerimeter=0;entryX=0;entryY=0;entryDx=20;entryDy=20;entryPerimeter=0;fontSize=14;fontColor=#E01B84;strokeColor=#283592;" parent="Y9b4Z3o9En6oE_J5yfvX-1" source="SBwuihwLTVM8k1IBvn76-69" target="SBwuihwLTVM8k1IBvn76-80" edge="1">
          <mxGeometry relative="1" as="geometry">
            <Array as="points">
              <mxPoint x="166" y="960" />
              <mxPoint x="166" y="960" />
            </Array>
          </mxGeometry>
        </mxCell>
        <mxCell id="SBwuihwLTVM8k1IBvn76-82" style="edgeStyle=orthogonalEdgeStyle;rounded=0;orthogonalLoop=1;jettySize=auto;html=1;exitX=0;exitY=0;exitDx=60;exitDy=40;exitPerimeter=0;entryX=-0.401;entryY=0.811;entryDx=0;entryDy=0;fontSize=14;fontColor=#E01B84;strokeColor=#283592;entryPerimeter=0;" parent="Y9b4Z3o9En6oE_J5yfvX-1" source="SBwuihwLTVM8k1IBvn76-80" target="UYK-7qxF8x5jv9WJo-W0-1" edge="1">
          <mxGeometry relative="1" as="geometry">
            <Array as="points">
              <mxPoint x="100" y="1050" />
              <mxPoint x="266" y="1050" />
            </Array>
          </mxGeometry>
        </mxCell>
        <mxCell id="SBwuihwLTVM8k1IBvn76-87" style="edgeStyle=orthogonalEdgeStyle;rounded=0;orthogonalLoop=1;jettySize=auto;html=1;exitX=1;exitY=0.5;exitDx=0;exitDy=0;entryX=0;entryY=0.5;entryDx=0;entryDy=0;fontSize=14;fontColor=#E01B84;strokeColor=#283592;" parent="Y9b4Z3o9En6oE_J5yfvX-1" source="SBwuihwLTVM8k1IBvn76-71" target="SBwuihwLTVM8k1IBvn76-84" edge="1">
          <mxGeometry relative="1" as="geometry" />
        </mxCell>
        <mxCell id="SBwuihwLTVM8k1IBvn76-91" style="edgeStyle=orthogonalEdgeStyle;rounded=0;orthogonalLoop=1;jettySize=auto;html=1;exitX=1;exitY=0.5;exitDx=0;exitDy=0;exitPerimeter=0;entryX=1;entryY=0.5;entryDx=0;entryDy=0;entryPerimeter=0;fontSize=14;fontColor=#E01B84;strokeColor=#283592;" parent="Y9b4Z3o9En6oE_J5yfvX-1" source="SBwuihwLTVM8k1IBvn76-85" target="SBwuihwLTVM8k1IBvn76-90" edge="1">
          <mxGeometry relative="1" as="geometry">
            <Array as="points">
              <mxPoint x="636" y="1020" />
              <mxPoint x="636" y="300" />
            </Array>
          </mxGeometry>
        </mxCell>
        <mxCell id="SBwuihwLTVM8k1IBvn76-92" style="edgeStyle=orthogonalEdgeStyle;rounded=0;orthogonalLoop=1;jettySize=auto;html=1;exitX=0;exitY=0;exitDx=60;exitDy=40;exitPerimeter=0;entryX=-0.307;entryY=0.145;entryDx=0;entryDy=0;fontSize=14;fontColor=#E01B84;strokeColor=#283592;entryPerimeter=0;" parent="Y9b4Z3o9En6oE_J5yfvX-1" source="SBwuihwLTVM8k1IBvn76-90" target="UYK-7qxF8x5jv9WJo-W0-1" edge="1">
          <mxGeometry relative="1" as="geometry">
            <Array as="points">
              <mxPoint x="706" y="1050" />
              <mxPoint x="346" y="1050" />
            </Array>
          </mxGeometry>
        </mxCell>
        <mxCell id="SBwuihwLTVM8k1IBvn76-77" style="edgeStyle=orthogonalEdgeStyle;rounded=0;orthogonalLoop=1;jettySize=auto;html=1;exitX=0;exitY=0.5;exitDx=0;exitDy=0;entryX=1;entryY=0.5;entryDx=0;entryDy=0;fontSize=14;fontColor=#E01B84;strokeColor=#283592;" parent="Y9b4Z3o9En6oE_J5yfvX-1" source="SBwuihwLTVM8k1IBvn76-51" target="ucHowXHDUnCpZmRlBpM0-1" edge="1">
          <mxGeometry relative="1" as="geometry">
            <Array as="points">
              <mxPoint x="430" y="200" />
              <mxPoint x="430" y="555" />
            </Array>
          </mxGeometry>
        </mxCell>
      </root>
    </mxGraphModel>
  </diagram>
  <diagram id="dLOneZuymx4iYUXCO88S" name="Add Space">
    <mxGraphModel dx="791" dy="1069" grid="1" gridSize="10" guides="1" tooltips="1" connect="1" arrows="1" fold="1" page="1" pageScale="1" pageWidth="827" pageHeight="1169" math="0" shadow="0">
      <root>
        <mxCell id="0" />
        <mxCell id="1" parent="0" />
        <mxCell id="Yo68WYZIFa2jaD8EibDz-1" value="Add Coworking space" style="swimlane;childLayout=stackLayout;resizeParent=1;resizeParentMax=0;startSize=30;swimlaneFillColor=none;gradientColor=none;rounded=1;fillColor=#283592;fontColor=#FFFFFF;strokeColor=#283592;fontSize=16;" parent="1" vertex="1">
          <mxGeometry x="134" y="40" width="560" height="890" as="geometry" />
        </mxCell>
        <mxCell id="srAZ5GR5LNJATQXIu9n--6" style="edgeStyle=orthogonalEdgeStyle;rounded=0;orthogonalLoop=1;jettySize=auto;html=1;exitX=1;exitY=0.5;exitDx=0;exitDy=0;entryX=0;entryY=0.5;entryDx=0;entryDy=0;fontSize=14;fontColor=#283592;strokeColor=#E01B84;" parent="Yo68WYZIFa2jaD8EibDz-1" source="srAZ5GR5LNJATQXIu9n--3" target="srAZ5GR5LNJATQXIu9n--5" edge="1">
          <mxGeometry relative="1" as="geometry" />
        </mxCell>
        <mxCell id="srAZ5GR5LNJATQXIu9n--11" style="edgeStyle=orthogonalEdgeStyle;rounded=0;orthogonalLoop=1;jettySize=auto;html=1;exitX=0;exitY=0.5;exitDx=0;exitDy=0;entryX=1;entryY=0.5;entryDx=0;entryDy=0;fontSize=14;fontColor=#283592;strokeColor=#283592;" parent="Yo68WYZIFa2jaD8EibDz-1" source="srAZ5GR5LNJATQXIu9n--7" target="srAZ5GR5LNJATQXIu9n--10" edge="1">
          <mxGeometry relative="1" as="geometry" />
        </mxCell>
        <mxCell id="srAZ5GR5LNJATQXIu9n--14" style="edgeStyle=orthogonalEdgeStyle;rounded=0;orthogonalLoop=1;jettySize=auto;html=1;exitX=0.5;exitY=0;exitDx=0;exitDy=0;entryX=0;entryY=0.75;entryDx=0;entryDy=0;fontSize=14;fontColor=#283592;strokeColor=#E01B84;" parent="Yo68WYZIFa2jaD8EibDz-1" source="srAZ5GR5LNJATQXIu9n--10" target="srAZ5GR5LNJATQXIu9n--5" edge="1">
          <mxGeometry relative="1" as="geometry">
            <Array as="points">
              <mxPoint x="203" y="530" />
              <mxPoint x="286" y="530" />
              <mxPoint x="286" y="510" />
            </Array>
          </mxGeometry>
        </mxCell>
        <mxCell id="Yo68WYZIFa2jaD8EibDz-2" value="CoworkClub" style="swimlane;startSize=20;rounded=1;fontColor=#e01b84;strokeColor=#283592;fontSize=14;" parent="Yo68WYZIFa2jaD8EibDz-1" vertex="1">
          <mxGeometry y="30" width="280" height="860" as="geometry">
            <mxRectangle y="30" width="30" height="980" as="alternateBounds" />
          </mxGeometry>
        </mxCell>
        <mxCell id="Gj3wsYL6SBJlNOCuP870-2" style="edgeStyle=orthogonalEdgeStyle;rounded=0;orthogonalLoop=1;jettySize=auto;html=1;exitX=0.5;exitY=1;exitDx=0;exitDy=0;entryX=0.5;entryY=0;entryDx=0;entryDy=0;fontSize=14;fontColor=#283592;strokeColor=#E01B84;" parent="Yo68WYZIFa2jaD8EibDz-2" source="78g4_6eE-cRGmUJaPtJS-4" target="Gj3wsYL6SBJlNOCuP870-1" edge="1">
          <mxGeometry relative="1" as="geometry" />
        </mxCell>
        <mxCell id="78g4_6eE-cRGmUJaPtJS-4" value="Application Validation" style="rounded=1;whiteSpace=wrap;html=1;strokeColor=#E01B84;fontColor=#283592;" parent="Yo68WYZIFa2jaD8EibDz-2" vertex="1">
          <mxGeometry x="80" y="190" width="120" height="40" as="geometry" />
        </mxCell>
        <mxCell id="srAZ5GR5LNJATQXIu9n--2" style="edgeStyle=orthogonalEdgeStyle;rounded=0;orthogonalLoop=1;jettySize=auto;html=1;exitX=0.5;exitY=1;exitDx=0;exitDy=0;entryX=0.5;entryY=0;entryDx=0;entryDy=0;fontSize=14;fontColor=#283592;strokeColor=#E01B84;" parent="Yo68WYZIFa2jaD8EibDz-2" source="Gj3wsYL6SBJlNOCuP870-1" target="srAZ5GR5LNJATQXIu9n--1" edge="1">
          <mxGeometry relative="1" as="geometry" />
        </mxCell>
        <mxCell id="Gj3wsYL6SBJlNOCuP870-1" value="Accepted ?" style="rhombus;whiteSpace=wrap;html=1;fontColor=#283592;strokeColor=#E01B84;aspect=fixed;" parent="Yo68WYZIFa2jaD8EibDz-2" vertex="1">
          <mxGeometry x="86.66" y="265" width="106.67" height="40" as="geometry" />
        </mxCell>
        <mxCell id="lBcqNDobqTq8zWEflIWa-1" value="No" style="text;html=1;strokeColor=none;fillColor=none;align=center;verticalAlign=middle;whiteSpace=wrap;rounded=0;fontColor=#283592;" parent="Yo68WYZIFa2jaD8EibDz-2" vertex="1">
          <mxGeometry x="62.660000000000025" y="265" width="24" height="20" as="geometry" />
        </mxCell>
        <mxCell id="lBcqNDobqTq8zWEflIWa-2" value="Yes" style="text;html=1;strokeColor=none;fillColor=none;align=center;verticalAlign=middle;whiteSpace=wrap;rounded=0;fontColor=#283592;" parent="Yo68WYZIFa2jaD8EibDz-2" vertex="1">
          <mxGeometry x="146" y="300" width="24" height="20" as="geometry" />
        </mxCell>
        <mxCell id="18OS0yw9Aujf9VRR2W7C-2" style="edgeStyle=orthogonalEdgeStyle;rounded=0;orthogonalLoop=1;jettySize=auto;html=1;exitX=0.5;exitY=1;exitDx=0;exitDy=0;entryX=-0.091;entryY=0.501;entryDx=0;entryDy=0;entryPerimeter=0;fontSize=14;fontColor=#283592;strokeColor=#E01B84;" parent="Yo68WYZIFa2jaD8EibDz-2" source="srAZ5GR5LNJATQXIu9n--1" target="18OS0yw9Aujf9VRR2W7C-1" edge="1">
          <mxGeometry relative="1" as="geometry" />
        </mxCell>
        <mxCell id="srAZ5GR5LNJATQXIu9n--1" value="Registration into database" style="rounded=1;whiteSpace=wrap;html=1;strokeColor=#E01B84;fontColor=#283592;" parent="Yo68WYZIFa2jaD8EibDz-2" vertex="1">
          <mxGeometry x="80" y="330" width="120" height="40" as="geometry" />
        </mxCell>
        <mxCell id="srAZ5GR5LNJATQXIu9n--3" value="Profile creation" style="rounded=1;whiteSpace=wrap;html=1;strokeColor=#E01B84;fontColor=#283592;" parent="Yo68WYZIFa2jaD8EibDz-2" vertex="1">
          <mxGeometry x="156.68" y="450" width="106.66" height="40" as="geometry" />
        </mxCell>
        <mxCell id="srAZ5GR5LNJATQXIu9n--12" style="edgeStyle=orthogonalEdgeStyle;rounded=0;orthogonalLoop=1;jettySize=auto;html=1;exitX=0.5;exitY=1;exitDx=0;exitDy=0;entryX=0.5;entryY=0;entryDx=0;entryDy=0;fontSize=14;fontColor=#283592;strokeColor=#E01B84;" parent="Yo68WYZIFa2jaD8EibDz-2" source="srAZ5GR5LNJATQXIu9n--10" target="srAZ5GR5LNJATQXIu9n--9" edge="1">
          <mxGeometry relative="1" as="geometry" />
        </mxCell>
        <mxCell id="srAZ5GR5LNJATQXIu9n--10" value="Accepted ?" style="rhombus;whiteSpace=wrap;html=1;fontColor=#283592;strokeColor=#E01B84;aspect=fixed;" parent="Yo68WYZIFa2jaD8EibDz-2" vertex="1">
          <mxGeometry x="150" y="530" width="106.67" height="40" as="geometry" />
        </mxCell>
        <mxCell id="7KMEmrjU1cZvPjGv8on1-2" style="edgeStyle=orthogonalEdgeStyle;rounded=0;orthogonalLoop=1;jettySize=auto;html=1;exitX=0.5;exitY=1;exitDx=0;exitDy=0;entryX=-0.151;entryY=0.236;entryDx=0;entryDy=0;entryPerimeter=0;fontSize=14;fontColor=#283592;strokeColor=#E01B84;" parent="Yo68WYZIFa2jaD8EibDz-2" source="srAZ5GR5LNJATQXIu9n--9" target="7KMEmrjU1cZvPjGv8on1-1" edge="1">
          <mxGeometry relative="1" as="geometry" />
        </mxCell>
        <mxCell id="srAZ5GR5LNJATQXIu9n--9" value="Profile update" style="rounded=1;whiteSpace=wrap;html=1;strokeColor=#E01B84;fontColor=#283592;" parent="Yo68WYZIFa2jaD8EibDz-2" vertex="1">
          <mxGeometry x="143.34" y="610" width="120" height="40" as="geometry" />
        </mxCell>
        <mxCell id="srAZ5GR5LNJATQXIu9n--13" value="Yes" style="text;html=1;strokeColor=none;fillColor=none;align=center;verticalAlign=middle;whiteSpace=wrap;rounded=0;fontColor=#283592;" parent="Yo68WYZIFa2jaD8EibDz-2" vertex="1">
          <mxGeometry x="209.34" y="570" width="24" height="20" as="geometry" />
        </mxCell>
        <mxCell id="srAZ5GR5LNJATQXIu9n--15" value="No" style="text;html=1;strokeColor=none;fillColor=none;align=center;verticalAlign=middle;whiteSpace=wrap;rounded=0;fontColor=#283592;" parent="Yo68WYZIFa2jaD8EibDz-2" vertex="1">
          <mxGeometry x="209.34000000000003" y="510" width="24" height="20" as="geometry" />
        </mxCell>
        <mxCell id="18OS0yw9Aujf9VRR2W7C-1" value="" style="html=1;points=[];perimeter=orthogonalPerimeter;fillColor=#E01B84;strokeColor=none;fontSize=14;fontColor=#E01B84;rotation=90;" parent="Yo68WYZIFa2jaD8EibDz-2" vertex="1">
          <mxGeometry x="140" y="292.5" width="5" height="235" as="geometry" />
        </mxCell>
        <mxCell id="18OS0yw9Aujf9VRR2W7C-3" value="Management Dashboard access" style="rounded=1;whiteSpace=wrap;html=1;strokeColor=#E01B84;fontColor=#283592;" parent="Yo68WYZIFa2jaD8EibDz-2" vertex="1">
          <mxGeometry x="21.340000000000003" y="450" width="104.66" height="40" as="geometry" />
        </mxCell>
        <mxCell id="18OS0yw9Aujf9VRR2W7C-4" style="edgeStyle=orthogonalEdgeStyle;rounded=0;orthogonalLoop=1;jettySize=auto;html=1;exitX=0.826;exitY=0.827;exitDx=0;exitDy=0;entryX=0.5;entryY=0;entryDx=0;entryDy=0;fontSize=14;fontColor=#283592;strokeColor=#E01B84;exitPerimeter=0;" parent="Yo68WYZIFa2jaD8EibDz-2" source="18OS0yw9Aujf9VRR2W7C-1" target="18OS0yw9Aujf9VRR2W7C-3" edge="1">
          <mxGeometry relative="1" as="geometry">
            <mxPoint x="149.9999999999999" y="380" as="sourcePoint" />
            <mxPoint x="152.26499999999987" y="417.04499999999996" as="targetPoint" />
          </mxGeometry>
        </mxCell>
        <mxCell id="18OS0yw9Aujf9VRR2W7C-5" style="edgeStyle=orthogonalEdgeStyle;rounded=0;orthogonalLoop=1;jettySize=auto;html=1;exitX=1.03;exitY=0.211;exitDx=0;exitDy=0;entryX=0.5;entryY=0;entryDx=0;entryDy=0;fontSize=14;fontColor=#283592;strokeColor=#E01B84;exitPerimeter=0;" parent="Yo68WYZIFa2jaD8EibDz-2" source="18OS0yw9Aujf9VRR2W7C-1" target="srAZ5GR5LNJATQXIu9n--3" edge="1">
          <mxGeometry relative="1" as="geometry">
            <mxPoint x="75.65500000000003" y="421.6299999999999" as="sourcePoint" />
            <mxPoint x="83.66999999999996" y="460" as="targetPoint" />
            <Array as="points">
              <mxPoint x="210" y="432" />
              <mxPoint x="210" y="432" />
            </Array>
          </mxGeometry>
        </mxCell>
        <mxCell id="7KMEmrjU1cZvPjGv8on1-1" value="" style="html=1;points=[];perimeter=orthogonalPerimeter;fillColor=#E01B84;strokeColor=none;fontSize=14;fontColor=#E01B84;rotation=90;" parent="Yo68WYZIFa2jaD8EibDz-2" vertex="1">
          <mxGeometry x="140" y="570" width="5" height="235" as="geometry" />
        </mxCell>
        <mxCell id="7KMEmrjU1cZvPjGv8on1-3" style="edgeStyle=orthogonalEdgeStyle;rounded=0;orthogonalLoop=1;jettySize=auto;html=1;exitX=0.5;exitY=1;exitDx=0;exitDy=0;fontSize=14;fontColor=#283592;strokeColor=#E01B84;entryX=-0.076;entryY=0.788;entryDx=0;entryDy=0;entryPerimeter=0;" parent="Yo68WYZIFa2jaD8EibDz-2" source="18OS0yw9Aujf9VRR2W7C-3" target="7KMEmrjU1cZvPjGv8on1-1" edge="1">
          <mxGeometry relative="1" as="geometry">
            <mxPoint x="96" y="630" as="targetPoint" />
            <Array as="points">
              <mxPoint x="75" y="490" />
              <mxPoint x="75" y="588" />
            </Array>
          </mxGeometry>
        </mxCell>
        <mxCell id="RFCVS_46vstNp0yDbta4-2" style="edgeStyle=orthogonalEdgeStyle;rounded=0;orthogonalLoop=1;jettySize=auto;html=1;exitX=0.5;exitY=1;exitDx=0;exitDy=0;entryX=0.5;entryY=0;entryDx=0;entryDy=0;fontSize=14;fontColor=#283592;strokeColor=#E01B84;" parent="Yo68WYZIFa2jaD8EibDz-2" source="NGinKQUIg61Kh9BNyJYm-1" target="RFCVS_46vstNp0yDbta4-1" edge="1">
          <mxGeometry relative="1" as="geometry" />
        </mxCell>
        <mxCell id="NGinKQUIg61Kh9BNyJYm-1" value="Publish to CoworkClub" style="rounded=1;whiteSpace=wrap;html=1;strokeColor=#E01B84;fontColor=#283592;" parent="Yo68WYZIFa2jaD8EibDz-2" vertex="1">
          <mxGeometry x="80.00000000000003" y="730" width="120" height="40" as="geometry" />
        </mxCell>
        <mxCell id="NGinKQUIg61Kh9BNyJYm-2" style="edgeStyle=orthogonalEdgeStyle;rounded=0;orthogonalLoop=1;jettySize=auto;html=1;exitX=0.912;exitY=0.51;exitDx=0;exitDy=0;entryX=0.5;entryY=0;entryDx=0;entryDy=0;fontSize=14;fontColor=#283592;strokeColor=#E01B84;exitPerimeter=0;" parent="Yo68WYZIFa2jaD8EibDz-2" source="7KMEmrjU1cZvPjGv8on1-1" target="NGinKQUIg61Kh9BNyJYm-1" edge="1">
          <mxGeometry relative="1" as="geometry">
            <mxPoint x="138.80000000000013" y="690.0000000000001" as="sourcePoint" />
            <mxPoint x="139.99999999999994" y="724.245" as="targetPoint" />
          </mxGeometry>
        </mxCell>
        <mxCell id="RFCVS_46vstNp0yDbta4-1" value="" style="ellipse;html=1;shape=endState;fillColor=#283592;strokeColor=#E01B84;fontSize=14;fontColor=#E01B84;" parent="Yo68WYZIFa2jaD8EibDz-2" vertex="1">
          <mxGeometry x="125" y="820" width="30" height="30" as="geometry" />
        </mxCell>
        <mxCell id="Yo68WYZIFa2jaD8EibDz-19" value="Space Provider" style="swimlane;startSize=20;rounded=1;fontColor=#283592;strokeColor=#283592;fontSize=14;" parent="Yo68WYZIFa2jaD8EibDz-1" vertex="1">
          <mxGeometry x="280" y="30" width="280" height="860" as="geometry" />
        </mxCell>
        <mxCell id="WolrFz-vaTPoc9gOzd8_-2" style="edgeStyle=orthogonalEdgeStyle;rounded=0;orthogonalLoop=1;jettySize=auto;html=1;exitX=0.5;exitY=1;exitDx=0;exitDy=0;entryX=0.5;entryY=0;entryDx=0;entryDy=0;fontSize=14;fontColor=#283592;strokeColor=#283592;" parent="Yo68WYZIFa2jaD8EibDz-19" source="Yo68WYZIFa2jaD8EibDz-33" target="WolrFz-vaTPoc9gOzd8_-1" edge="1">
          <mxGeometry relative="1" as="geometry" />
        </mxCell>
        <mxCell id="Yo68WYZIFa2jaD8EibDz-33" value="" style="ellipse;fillColor=#283592;strokeColor=none;fontSize=14;fontColor=#283592;" parent="Yo68WYZIFa2jaD8EibDz-19" vertex="1">
          <mxGeometry x="125" y="60" width="30" height="30" as="geometry" />
        </mxCell>
        <mxCell id="78g4_6eE-cRGmUJaPtJS-3" style="edgeStyle=orthogonalEdgeStyle;rounded=0;orthogonalLoop=1;jettySize=auto;html=1;exitX=0.5;exitY=1;exitDx=0;exitDy=0;entryX=0.5;entryY=0;entryDx=0;entryDy=0;fontSize=14;fontColor=#283592;strokeColor=#283592;" parent="Yo68WYZIFa2jaD8EibDz-19" source="WolrFz-vaTPoc9gOzd8_-1" target="78g4_6eE-cRGmUJaPtJS-1" edge="1">
          <mxGeometry relative="1" as="geometry" />
        </mxCell>
        <mxCell id="WolrFz-vaTPoc9gOzd8_-1" value="Request to add Space" style="rounded=1;whiteSpace=wrap;html=1;strokeColor=#283592;fontColor=#283592;" parent="Yo68WYZIFa2jaD8EibDz-19" vertex="1">
          <mxGeometry x="80" y="110" width="120" height="40" as="geometry" />
        </mxCell>
        <mxCell id="78g4_6eE-cRGmUJaPtJS-1" value="Application&lt;br&gt;(Space name, location, working days/hours, prices, office types, ... )" style="rounded=0;whiteSpace=wrap;html=1;fontColor=#283592;strokeColor=#283592;" parent="Yo68WYZIFa2jaD8EibDz-19" vertex="1">
          <mxGeometry x="80" y="170" width="120" height="80" as="geometry" />
        </mxCell>
        <mxCell id="srAZ5GR5LNJATQXIu9n--8" style="edgeStyle=orthogonalEdgeStyle;rounded=0;orthogonalLoop=1;jettySize=auto;html=1;exitX=0.5;exitY=1;exitDx=0;exitDy=0;entryX=0.5;entryY=0;entryDx=0;entryDy=0;fontSize=14;fontColor=#283592;strokeColor=#283592;" parent="Yo68WYZIFa2jaD8EibDz-19" source="srAZ5GR5LNJATQXIu9n--5" target="srAZ5GR5LNJATQXIu9n--7" edge="1">
          <mxGeometry relative="1" as="geometry" />
        </mxCell>
        <mxCell id="srAZ5GR5LNJATQXIu9n--5" value="Profile editing" style="rounded=1;whiteSpace=wrap;html=1;strokeColor=#283592;fontColor=#283592;" parent="Yo68WYZIFa2jaD8EibDz-19" vertex="1">
          <mxGeometry x="80" y="450" width="120" height="40" as="geometry" />
        </mxCell>
        <mxCell id="srAZ5GR5LNJATQXIu9n--7" value="Images, descriptions, ..." style="rounded=0;whiteSpace=wrap;html=1;fontColor=#283592;strokeColor=#283592;" parent="Yo68WYZIFa2jaD8EibDz-19" vertex="1">
          <mxGeometry x="80" y="530" width="120" height="40" as="geometry" />
        </mxCell>
        <mxCell id="78g4_6eE-cRGmUJaPtJS-5" style="edgeStyle=orthogonalEdgeStyle;rounded=0;orthogonalLoop=1;jettySize=auto;html=1;exitX=0;exitY=0.5;exitDx=0;exitDy=0;entryX=1;entryY=0.5;entryDx=0;entryDy=0;fontSize=14;fontColor=#283592;strokeColor=#283592;" parent="Yo68WYZIFa2jaD8EibDz-1" source="78g4_6eE-cRGmUJaPtJS-1" target="78g4_6eE-cRGmUJaPtJS-4" edge="1">
          <mxGeometry relative="1" as="geometry" />
        </mxCell>
        <mxCell id="Gj3wsYL6SBJlNOCuP870-3" style="edgeStyle=orthogonalEdgeStyle;rounded=0;orthogonalLoop=1;jettySize=auto;html=1;exitX=0;exitY=0.5;exitDx=0;exitDy=0;entryX=0;entryY=0.5;entryDx=0;entryDy=0;fontSize=14;fontColor=#283592;strokeColor=#E01B84;" parent="Yo68WYZIFa2jaD8EibDz-1" source="Gj3wsYL6SBJlNOCuP870-1" target="WolrFz-vaTPoc9gOzd8_-1" edge="1">
          <mxGeometry relative="1" as="geometry">
            <Array as="points">
              <mxPoint x="46" y="315" />
              <mxPoint x="46" y="160" />
            </Array>
          </mxGeometry>
        </mxCell>
      </root>
    </mxGraphModel>
  </diagram>
  <diagram id="QN3FZXPzjIui03fiu6KZ" name="Class Diagram">
    <mxGraphModel dx="1200" dy="560" grid="1" gridSize="10" guides="1" tooltips="1" connect="1" arrows="1" fold="1" page="1" pageScale="1" pageWidth="850" pageHeight="1100" math="0" shadow="0">
      <root>
        <mxCell id="wxooSHnF6QyXdMB0OCFC-0" />
        <mxCell id="wxooSHnF6QyXdMB0OCFC-1" parent="wxooSHnF6QyXdMB0OCFC-0" />
      </root>
    </mxGraphModel>
  </diagram>
  <diagram id="HerWaRR4fosUu1pSUeQV" name="Use Case">
    <mxGraphModel dx="901" dy="360" grid="1" gridSize="10" guides="1" tooltips="1" connect="1" arrows="1" fold="1" page="1" pageScale="1" pageWidth="827" pageHeight="1169" math="0" shadow="0">
      <root>
        <mxCell id="0" />
        <mxCell id="1" parent="0" />
        <mxCell id="7Ho1O0npHEuM6Ab0vZdr-1" value="" style="rounded=0;whiteSpace=wrap;html=1;fillColor=none;strokeColor=#283592;strokeWidth=2;" vertex="1" parent="1">
          <mxGeometry x="161" y="39" width="520" height="1090" as="geometry" />
        </mxCell>
        <mxCell id="si8uyoqPotG8R0U7-kR5-7" style="edgeStyle=orthogonalEdgeStyle;rounded=0;orthogonalLoop=1;jettySize=auto;html=1;exitX=0.5;exitY=0.5;exitDx=0;exitDy=0;exitPerimeter=0;entryX=0;entryY=0.5;entryDx=0;entryDy=0;fontSize=14;fontColor=#E01B84;strokeColor=#E01B84;endArrow=none;endFill=0;" edge="1" parent="1" source="si8uyoqPotG8R0U7-kR5-6" target="0Z-lsKHnC-HnBV5NZcCl-4">
          <mxGeometry relative="1" as="geometry">
            <mxPoint x="100.00000000000011" y="554" as="sourcePoint" />
            <Array as="points">
              <mxPoint x="200" y="585" />
              <mxPoint x="200" y="134" />
              <mxPoint x="360" y="134" />
            </Array>
          </mxGeometry>
        </mxCell>
        <mxCell id="si8uyoqPotG8R0U7-kR5-10" style="edgeStyle=orthogonalEdgeStyle;rounded=0;orthogonalLoop=1;jettySize=auto;html=1;exitX=0.5;exitY=0.5;exitDx=0;exitDy=0;exitPerimeter=0;entryX=0.5;entryY=0;entryDx=0;entryDy=0;fontSize=14;fontColor=#E01B84;startArrow=none;startFill=0;endArrow=none;endFill=0;strokeColor=#E01B84;" edge="1" parent="1" source="si8uyoqPotG8R0U7-kR5-6" target="si8uyoqPotG8R0U7-kR5-3">
          <mxGeometry relative="1" as="geometry">
            <mxPoint x="100.00000000000011" y="554" as="sourcePoint" />
            <Array as="points">
              <mxPoint x="200" y="585" />
              <mxPoint x="200" y="79" />
              <mxPoint x="545" y="79" />
              <mxPoint x="545" y="189" />
              <mxPoint x="540" y="189" />
            </Array>
          </mxGeometry>
        </mxCell>
        <mxCell id="si8uyoqPotG8R0U7-kR5-16" style="edgeStyle=orthogonalEdgeStyle;rounded=0;orthogonalLoop=1;jettySize=auto;html=1;exitX=0.5;exitY=0.5;exitDx=0;exitDy=0;exitPerimeter=0;entryX=0;entryY=0.5;entryDx=0;entryDy=0;fontSize=14;fontColor=#E01B84;startArrow=none;startFill=0;endArrow=none;endFill=0;strokeColor=#E01B84;" edge="1" parent="1" source="si8uyoqPotG8R0U7-kR5-6" target="si8uyoqPotG8R0U7-kR5-11">
          <mxGeometry relative="1" as="geometry">
            <mxPoint x="100.00000000000011" y="554" as="sourcePoint" />
            <Array as="points">
              <mxPoint x="200" y="585" />
              <mxPoint x="200" y="219" />
              <mxPoint x="240" y="219" />
            </Array>
          </mxGeometry>
        </mxCell>
        <mxCell id="si8uyoqPotG8R0U7-kR5-20" style="edgeStyle=orthogonalEdgeStyle;rounded=0;orthogonalLoop=1;jettySize=auto;html=1;exitX=0.5;exitY=0.5;exitDx=0;exitDy=0;exitPerimeter=0;entryX=0;entryY=0.5;entryDx=0;entryDy=0;fontSize=14;fontColor=#E01B84;startArrow=none;startFill=0;endArrow=none;endFill=0;strokeColor=#E01B84;" edge="1" parent="1" source="si8uyoqPotG8R0U7-kR5-6" target="si8uyoqPotG8R0U7-kR5-17">
          <mxGeometry relative="1" as="geometry">
            <mxPoint x="100.00000000000011" y="554" as="sourcePoint" />
            <Array as="points">
              <mxPoint x="200" y="585" />
              <mxPoint x="200" y="299" />
              <mxPoint x="360" y="299" />
            </Array>
          </mxGeometry>
        </mxCell>
        <mxCell id="si8uyoqPotG8R0U7-kR5-25" style="edgeStyle=orthogonalEdgeStyle;rounded=0;orthogonalLoop=1;jettySize=auto;html=1;exitX=0.5;exitY=0.5;exitDx=0;exitDy=0;exitPerimeter=0;entryX=0.5;entryY=1;entryDx=0;entryDy=0;fontSize=14;fontColor=#E01B84;startArrow=none;startFill=0;endArrow=none;endFill=0;strokeColor=#E01B84;" edge="1" parent="1" source="si8uyoqPotG8R0U7-kR5-6" target="si8uyoqPotG8R0U7-kR5-24">
          <mxGeometry relative="1" as="geometry">
            <mxPoint x="100.00000000000011" y="554" as="sourcePoint" />
            <Array as="points">
              <mxPoint x="200" y="585" />
              <mxPoint x="200" y="400" />
              <mxPoint x="300" y="400" />
            </Array>
          </mxGeometry>
        </mxCell>
        <mxCell id="si8uyoqPotG8R0U7-kR5-48" style="edgeStyle=orthogonalEdgeStyle;rounded=0;orthogonalLoop=1;jettySize=auto;html=1;exitX=0.5;exitY=0.5;exitDx=0;exitDy=0;exitPerimeter=0;entryX=0;entryY=0;entryDx=0;entryDy=0;fontSize=14;fontColor=#E01B84;startArrow=none;startFill=0;endArrow=none;endFill=0;strokeColor=#E01B84;" edge="1" parent="1" source="si8uyoqPotG8R0U7-kR5-6" target="si8uyoqPotG8R0U7-kR5-47">
          <mxGeometry relative="1" as="geometry">
            <Array as="points">
              <mxPoint x="200" y="585" />
              <mxPoint x="200" y="790" />
              <mxPoint x="370" y="790" />
              <mxPoint x="370" y="810" />
              <mxPoint x="497" y="810" />
            </Array>
          </mxGeometry>
        </mxCell>
        <mxCell id="si8uyoqPotG8R0U7-kR5-51" style="edgeStyle=orthogonalEdgeStyle;rounded=0;orthogonalLoop=1;jettySize=auto;html=1;exitX=0.5;exitY=0.5;exitDx=0;exitDy=0;exitPerimeter=0;entryX=0;entryY=0.5;entryDx=0;entryDy=0;fontSize=14;fontColor=#E01B84;startArrow=none;startFill=0;endArrow=none;endFill=0;strokeColor=#E01B84;" edge="1" parent="1" source="si8uyoqPotG8R0U7-kR5-6" target="si8uyoqPotG8R0U7-kR5-50">
          <mxGeometry relative="1" as="geometry">
            <Array as="points">
              <mxPoint x="200" y="585" />
              <mxPoint x="200" y="880" />
            </Array>
          </mxGeometry>
        </mxCell>
        <mxCell id="si8uyoqPotG8R0U7-kR5-55" style="edgeStyle=orthogonalEdgeStyle;rounded=0;orthogonalLoop=1;jettySize=auto;html=1;exitX=0.5;exitY=0.5;exitDx=0;exitDy=0;exitPerimeter=0;entryX=0;entryY=0.5;entryDx=0;entryDy=0;fontSize=14;fontColor=#E01B84;startArrow=none;startFill=0;endArrow=none;endFill=0;strokeColor=#E01B84;" edge="1" parent="1" source="si8uyoqPotG8R0U7-kR5-6" target="si8uyoqPotG8R0U7-kR5-53">
          <mxGeometry relative="1" as="geometry">
            <Array as="points">
              <mxPoint x="200" y="585" />
              <mxPoint x="200" y="920" />
            </Array>
          </mxGeometry>
        </mxCell>
        <mxCell id="si8uyoqPotG8R0U7-kR5-63" style="edgeStyle=orthogonalEdgeStyle;rounded=0;orthogonalLoop=1;jettySize=auto;html=1;exitX=0.5;exitY=0.5;exitDx=0;exitDy=0;exitPerimeter=0;entryX=0;entryY=0.5;entryDx=0;entryDy=0;fontSize=14;fontColor=#E01B84;startArrow=none;startFill=0;endArrow=none;endFill=0;strokeColor=#E01B84;" edge="1" parent="1" source="si8uyoqPotG8R0U7-kR5-6" target="si8uyoqPotG8R0U7-kR5-56">
          <mxGeometry relative="1" as="geometry">
            <Array as="points">
              <mxPoint x="200" y="585" />
              <mxPoint x="200" y="970" />
            </Array>
          </mxGeometry>
        </mxCell>
        <mxCell id="si8uyoqPotG8R0U7-kR5-64" style="edgeStyle=orthogonalEdgeStyle;rounded=0;orthogonalLoop=1;jettySize=auto;html=1;exitX=0.5;exitY=0.5;exitDx=0;exitDy=0;exitPerimeter=0;entryX=0;entryY=0.5;entryDx=0;entryDy=0;fontSize=14;fontColor=#E01B84;startArrow=none;startFill=0;endArrow=none;endFill=0;strokeColor=#E01B84;" edge="1" parent="1" source="si8uyoqPotG8R0U7-kR5-6" target="si8uyoqPotG8R0U7-kR5-60">
          <mxGeometry relative="1" as="geometry">
            <Array as="points">
              <mxPoint x="200" y="585" />
              <mxPoint x="200" y="1050" />
            </Array>
          </mxGeometry>
        </mxCell>
        <mxCell id="si8uyoqPotG8R0U7-kR5-66" style="edgeStyle=orthogonalEdgeStyle;rounded=0;orthogonalLoop=1;jettySize=auto;html=1;exitX=0.5;exitY=0.5;exitDx=0;exitDy=0;exitPerimeter=0;entryX=0.5;entryY=1;entryDx=0;entryDy=0;fontSize=14;fontColor=#E01B84;startArrow=none;startFill=0;endArrow=none;endFill=0;strokeColor=#E01B84;" edge="1" parent="1" source="si8uyoqPotG8R0U7-kR5-6" target="si8uyoqPotG8R0U7-kR5-57">
          <mxGeometry relative="1" as="geometry">
            <Array as="points">
              <mxPoint x="200" y="585" />
              <mxPoint x="200" y="1090" />
              <mxPoint x="540" y="1090" />
            </Array>
          </mxGeometry>
        </mxCell>
        <mxCell id="si8uyoqPotG8R0U7-kR5-6" value="User" style="shape=umlActor;verticalLabelPosition=bottom;verticalAlign=top;html=1;outlineConnect=0;fontSize=14;fontColor=#E01B84;strokeColor=#283592;strokeWidth=2;fillColor=#C0C8FF;" vertex="1" parent="1">
          <mxGeometry x="80" y="550" width="40" height="70" as="geometry" />
        </mxCell>
        <mxCell id="si8uyoqPotG8R0U7-kR5-31" style="edgeStyle=orthogonalEdgeStyle;rounded=0;orthogonalLoop=1;jettySize=auto;html=1;exitX=0.5;exitY=0.5;exitDx=0;exitDy=0;exitPerimeter=0;entryX=1;entryY=0.5;entryDx=0;entryDy=0;fontSize=14;fontColor=#E01B84;startArrow=none;startFill=0;endArrow=none;endFill=0;strokeColor=#E01B84;" edge="1" parent="1" source="si8uyoqPotG8R0U7-kR5-26" target="si8uyoqPotG8R0U7-kR5-27">
          <mxGeometry relative="1" as="geometry">
            <mxPoint x="750" y="525" as="sourcePoint" />
            <Array as="points">
              <mxPoint x="640" y="585" />
              <mxPoint x="640" y="470" />
              <mxPoint x="481" y="470" />
            </Array>
          </mxGeometry>
        </mxCell>
        <mxCell id="si8uyoqPotG8R0U7-kR5-32" style="edgeStyle=orthogonalEdgeStyle;rounded=0;orthogonalLoop=1;jettySize=auto;html=1;exitX=0.5;exitY=0.5;exitDx=0;exitDy=0;exitPerimeter=0;entryX=0.5;entryY=0;entryDx=0;entryDy=0;fontSize=14;fontColor=#E01B84;startArrow=none;startFill=0;endArrow=none;endFill=0;strokeColor=#E01B84;" edge="1" parent="1" source="si8uyoqPotG8R0U7-kR5-26" target="si8uyoqPotG8R0U7-kR5-28">
          <mxGeometry relative="1" as="geometry">
            <mxPoint x="750" y="525" as="sourcePoint" />
            <Array as="points">
              <mxPoint x="640" y="585" />
              <mxPoint x="640" y="420" />
              <mxPoint x="297" y="420" />
            </Array>
          </mxGeometry>
        </mxCell>
        <mxCell id="si8uyoqPotG8R0U7-kR5-36" style="edgeStyle=orthogonalEdgeStyle;rounded=0;orthogonalLoop=1;jettySize=auto;html=1;exitX=0.5;exitY=0.5;exitDx=0;exitDy=0;exitPerimeter=0;entryX=1;entryY=0.5;entryDx=0;entryDy=0;fontSize=14;fontColor=#E01B84;startArrow=none;startFill=0;endArrow=none;endFill=0;strokeColor=#E01B84;" edge="1" parent="1" source="si8uyoqPotG8R0U7-kR5-26" target="si8uyoqPotG8R0U7-kR5-33">
          <mxGeometry relative="1" as="geometry">
            <mxPoint x="750" y="525" as="sourcePoint" />
            <Array as="points">
              <mxPoint x="640" y="585" />
              <mxPoint x="640" y="550" />
              <mxPoint x="601" y="550" />
            </Array>
          </mxGeometry>
        </mxCell>
        <mxCell id="si8uyoqPotG8R0U7-kR5-44" style="edgeStyle=orthogonalEdgeStyle;rounded=0;orthogonalLoop=1;jettySize=auto;html=1;exitX=0.5;exitY=0.5;exitDx=0;exitDy=0;exitPerimeter=0;entryX=1;entryY=0.5;entryDx=0;entryDy=0;fontSize=14;fontColor=#E01B84;startArrow=none;startFill=0;endArrow=none;endFill=0;strokeColor=#E01B84;" edge="1" parent="1" source="si8uyoqPotG8R0U7-kR5-26" target="si8uyoqPotG8R0U7-kR5-40">
          <mxGeometry relative="1" as="geometry">
            <mxPoint x="750" y="525" as="sourcePoint" />
            <Array as="points">
              <mxPoint x="640" y="585" />
              <mxPoint x="640" y="650" />
              <mxPoint x="600" y="650" />
            </Array>
          </mxGeometry>
        </mxCell>
        <mxCell id="si8uyoqPotG8R0U7-kR5-45" style="edgeStyle=orthogonalEdgeStyle;rounded=0;orthogonalLoop=1;jettySize=auto;html=1;exitX=0.5;exitY=0.5;exitDx=0;exitDy=0;exitPerimeter=0;entryX=1;entryY=0.5;entryDx=0;entryDy=0;fontSize=14;fontColor=#E01B84;startArrow=none;startFill=0;endArrow=none;endFill=0;strokeColor=#E01B84;" edge="1" parent="1" source="si8uyoqPotG8R0U7-kR5-26" target="si8uyoqPotG8R0U7-kR5-43">
          <mxGeometry relative="1" as="geometry">
            <mxPoint x="750" y="525" as="sourcePoint" />
            <Array as="points">
              <mxPoint x="640" y="585" />
              <mxPoint x="640" y="730" />
              <mxPoint x="481" y="730" />
            </Array>
          </mxGeometry>
        </mxCell>
        <mxCell id="si8uyoqPotG8R0U7-kR5-46" style="edgeStyle=orthogonalEdgeStyle;rounded=0;orthogonalLoop=1;jettySize=auto;html=1;exitX=0.5;exitY=0.5;exitDx=0;exitDy=0;exitPerimeter=0;entryX=0.5;entryY=1;entryDx=0;entryDy=0;fontSize=14;fontColor=#E01B84;startArrow=none;startFill=0;endArrow=none;endFill=0;strokeColor=#E01B84;" edge="1" parent="1" source="si8uyoqPotG8R0U7-kR5-26" target="si8uyoqPotG8R0U7-kR5-39">
          <mxGeometry relative="1" as="geometry">
            <mxPoint x="750" y="525" as="sourcePoint" />
            <Array as="points">
              <mxPoint x="640" y="585" />
              <mxPoint x="640" y="780" />
              <mxPoint x="301" y="780" />
            </Array>
          </mxGeometry>
        </mxCell>
        <mxCell id="si8uyoqPotG8R0U7-kR5-49" style="edgeStyle=orthogonalEdgeStyle;rounded=0;orthogonalLoop=1;jettySize=auto;html=1;exitX=0.5;exitY=0.5;exitDx=0;exitDy=0;exitPerimeter=0;entryX=1;entryY=0.5;entryDx=0;entryDy=0;fontSize=14;fontColor=#E01B84;startArrow=none;startFill=0;endArrow=none;endFill=0;strokeColor=#E01B84;" edge="1" parent="1" source="si8uyoqPotG8R0U7-kR5-26" target="si8uyoqPotG8R0U7-kR5-47">
          <mxGeometry relative="1" as="geometry">
            <Array as="points">
              <mxPoint x="640" y="585" />
              <mxPoint x="640" y="820" />
            </Array>
          </mxGeometry>
        </mxCell>
        <mxCell id="si8uyoqPotG8R0U7-kR5-52" style="edgeStyle=orthogonalEdgeStyle;rounded=0;orthogonalLoop=1;jettySize=auto;html=1;exitX=0.5;exitY=0.5;exitDx=0;exitDy=0;exitPerimeter=0;entryX=1;entryY=0.5;entryDx=0;entryDy=0;fontSize=14;fontColor=#E01B84;startArrow=none;startFill=0;endArrow=none;endFill=0;strokeColor=#E01B84;" edge="1" parent="1" source="si8uyoqPotG8R0U7-kR5-26" target="si8uyoqPotG8R0U7-kR5-50">
          <mxGeometry relative="1" as="geometry">
            <Array as="points">
              <mxPoint x="640" y="585" />
              <mxPoint x="640" y="880" />
            </Array>
          </mxGeometry>
        </mxCell>
        <mxCell id="si8uyoqPotG8R0U7-kR5-54" style="edgeStyle=orthogonalEdgeStyle;rounded=0;orthogonalLoop=1;jettySize=auto;html=1;exitX=0.5;exitY=0.5;exitDx=0;exitDy=0;exitPerimeter=0;entryX=1;entryY=0.5;entryDx=0;entryDy=0;fontSize=14;fontColor=#E01B84;startArrow=none;startFill=0;endArrow=none;endFill=0;strokeColor=#E01B84;" edge="1" parent="1" source="si8uyoqPotG8R0U7-kR5-26" target="si8uyoqPotG8R0U7-kR5-53">
          <mxGeometry relative="1" as="geometry">
            <Array as="points">
              <mxPoint x="640" y="585" />
              <mxPoint x="640" y="920" />
            </Array>
          </mxGeometry>
        </mxCell>
        <mxCell id="si8uyoqPotG8R0U7-kR5-65" style="edgeStyle=orthogonalEdgeStyle;rounded=0;orthogonalLoop=1;jettySize=auto;html=1;exitX=0.5;exitY=0.5;exitDx=0;exitDy=0;exitPerimeter=0;entryX=1;entryY=0.5;entryDx=0;entryDy=0;fontSize=14;fontColor=#E01B84;startArrow=none;startFill=0;endArrow=none;endFill=0;strokeColor=#E01B84;" edge="1" parent="1" source="si8uyoqPotG8R0U7-kR5-26" target="si8uyoqPotG8R0U7-kR5-57">
          <mxGeometry relative="1" as="geometry">
            <Array as="points">
              <mxPoint x="640" y="585" />
              <mxPoint x="640" y="990" />
            </Array>
          </mxGeometry>
        </mxCell>
        <mxCell id="si8uyoqPotG8R0U7-kR5-67" style="edgeStyle=orthogonalEdgeStyle;rounded=0;orthogonalLoop=1;jettySize=auto;html=1;exitX=0.5;exitY=0.5;exitDx=0;exitDy=0;exitPerimeter=0;entryX=1;entryY=1;entryDx=0;entryDy=0;fontSize=14;fontColor=#E01B84;startArrow=none;startFill=0;endArrow=none;endFill=0;strokeColor=#E01B84;" edge="1" parent="1" source="si8uyoqPotG8R0U7-kR5-26" target="si8uyoqPotG8R0U7-kR5-60">
          <mxGeometry relative="1" as="geometry">
            <Array as="points">
              <mxPoint x="640" y="585" />
              <mxPoint x="640" y="1071" />
            </Array>
          </mxGeometry>
        </mxCell>
        <mxCell id="si8uyoqPotG8R0U7-kR5-68" style="edgeStyle=orthogonalEdgeStyle;rounded=0;orthogonalLoop=1;jettySize=auto;html=1;exitX=0.5;exitY=0.5;exitDx=0;exitDy=0;exitPerimeter=0;entryX=0.5;entryY=1;entryDx=0;entryDy=0;fontSize=14;fontColor=#E01B84;startArrow=none;startFill=0;endArrow=none;endFill=0;strokeColor=#E01B84;" edge="1" parent="1" source="si8uyoqPotG8R0U7-kR5-26" target="si8uyoqPotG8R0U7-kR5-56">
          <mxGeometry relative="1" as="geometry">
            <Array as="points">
              <mxPoint x="640" y="585" />
              <mxPoint x="640" y="1110" />
              <mxPoint x="297" y="1110" />
            </Array>
          </mxGeometry>
        </mxCell>
        <mxCell id="si8uyoqPotG8R0U7-kR5-26" value="Space&lt;br&gt;Provider" style="shape=umlActor;verticalLabelPosition=bottom;verticalAlign=top;html=1;outlineConnect=0;fontSize=14;fontColor=#E01B84;strokeColor=#283592;strokeWidth=2;fillColor=#C0C8FF;" vertex="1" parent="1">
          <mxGeometry x="730" y="550" width="40" height="70" as="geometry" />
        </mxCell>
        <mxCell id="0Z-lsKHnC-HnBV5NZcCl-2" value="CoworkClub" style="text;html=1;strokeColor=none;fillColor=none;align=center;verticalAlign=middle;whiteSpace=wrap;rounded=0;fontColor=#E01B84;fontStyle=1;fontSize=20;" vertex="1" parent="1">
          <mxGeometry x="356" y="39" width="128" height="30" as="geometry" />
        </mxCell>
        <mxCell id="si8uyoqPotG8R0U7-kR5-8" style="rounded=0;orthogonalLoop=1;jettySize=auto;html=1;exitX=1;exitY=1;exitDx=0;exitDy=0;entryX=0;entryY=0;entryDx=0;entryDy=0;fontSize=14;fontColor=#E01B84;strokeColor=#283592;endArrow=none;endFill=0;startArrow=open;startFill=0;dashed=1;" edge="1" parent="1" source="0Z-lsKHnC-HnBV5NZcCl-4" target="si8uyoqPotG8R0U7-kR5-3">
          <mxGeometry relative="1" as="geometry" />
        </mxCell>
        <mxCell id="si8uyoqPotG8R0U7-kR5-9" value="«include»" style="edgeLabel;html=1;align=center;verticalAlign=middle;resizable=0;points=[];fontSize=14;fontColor=#E01B84;" vertex="1" connectable="0" parent="si8uyoqPotG8R0U7-kR5-8">
          <mxGeometry x="0.1907" relative="1" as="geometry">
            <mxPoint as="offset" />
          </mxGeometry>
        </mxCell>
        <mxCell id="si8uyoqPotG8R0U7-kR5-12" style="edgeStyle=none;rounded=0;orthogonalLoop=1;jettySize=auto;html=1;exitX=0;exitY=1;exitDx=0;exitDy=0;entryX=1;entryY=0;entryDx=0;entryDy=0;fontSize=14;fontColor=#E01B84;startArrow=open;startFill=0;endArrow=none;endFill=0;strokeColor=#283592;dashed=1;" edge="1" parent="1" source="0Z-lsKHnC-HnBV5NZcCl-4" target="si8uyoqPotG8R0U7-kR5-11">
          <mxGeometry relative="1" as="geometry" />
        </mxCell>
        <mxCell id="si8uyoqPotG8R0U7-kR5-15" value="«extends»" style="edgeLabel;html=1;align=center;verticalAlign=middle;resizable=0;points=[];fontSize=14;fontColor=#E01B84;" vertex="1" connectable="0" parent="si8uyoqPotG8R0U7-kR5-12">
          <mxGeometry x="0.532" y="-2" relative="1" as="geometry">
            <mxPoint x="2" y="-10" as="offset" />
          </mxGeometry>
        </mxCell>
        <mxCell id="0Z-lsKHnC-HnBV5NZcCl-4" value="Search for&lt;br&gt;Space" style="ellipse;whiteSpace=wrap;html=1;fontSize=14;fontColor=#E01B84;strokeColor=#283592;strokeWidth=2;fillColor=#C0C8FF;" vertex="1" parent="1">
          <mxGeometry x="360" y="99" width="120" height="60" as="geometry" />
        </mxCell>
        <mxCell id="si8uyoqPotG8R0U7-kR5-3" value="Specify search&lt;br&gt;parameters" style="ellipse;whiteSpace=wrap;html=1;fontSize=14;fontColor=#E01B84;strokeColor=#283592;strokeWidth=2;fillColor=#C0C8FF;" vertex="1" parent="1">
          <mxGeometry x="480" y="184" width="120" height="60" as="geometry" />
        </mxCell>
        <mxCell id="si8uyoqPotG8R0U7-kR5-11" value="Filter the results" style="ellipse;whiteSpace=wrap;html=1;fontSize=14;fontColor=#E01B84;strokeColor=#283592;strokeWidth=2;fillColor=#C0C8FF;" vertex="1" parent="1">
          <mxGeometry x="240" y="184" width="120" height="60" as="geometry" />
        </mxCell>
        <mxCell id="si8uyoqPotG8R0U7-kR5-17" value="Compare results" style="ellipse;whiteSpace=wrap;html=1;fontSize=14;fontColor=#E01B84;strokeColor=#283592;strokeWidth=2;fillColor=#C0C8FF;" vertex="1" parent="1">
          <mxGeometry x="360" y="264" width="120" height="60" as="geometry" />
        </mxCell>
        <mxCell id="si8uyoqPotG8R0U7-kR5-18" style="edgeStyle=none;rounded=0;orthogonalLoop=1;jettySize=auto;html=1;exitX=0.5;exitY=1;exitDx=0;exitDy=0;entryX=0.5;entryY=0;entryDx=0;entryDy=0;fontSize=14;fontColor=#E01B84;startArrow=open;startFill=0;endArrow=none;endFill=0;strokeColor=#283592;dashed=1;" edge="1" parent="1" source="0Z-lsKHnC-HnBV5NZcCl-4" target="si8uyoqPotG8R0U7-kR5-17">
          <mxGeometry relative="1" as="geometry">
            <mxPoint x="350" y="204" as="sourcePoint" />
            <mxPoint x="307" y="289.0000000000002" as="targetPoint" />
          </mxGeometry>
        </mxCell>
        <mxCell id="si8uyoqPotG8R0U7-kR5-19" value="«extends»" style="edgeLabel;html=1;align=center;verticalAlign=middle;resizable=0;points=[];fontSize=14;fontColor=#E01B84;" vertex="1" connectable="0" parent="si8uyoqPotG8R0U7-kR5-18">
          <mxGeometry x="0.532" y="-2" relative="1" as="geometry">
            <mxPoint x="3" y="-6" as="offset" />
          </mxGeometry>
        </mxCell>
        <mxCell id="si8uyoqPotG8R0U7-kR5-24" value="Profile management" style="ellipse;whiteSpace=wrap;html=1;fontSize=14;fontColor=#E01B84;strokeColor=#283592;strokeWidth=2;fillColor=#C0C8FF;" vertex="1" parent="1">
          <mxGeometry x="240" y="330" width="120" height="60" as="geometry" />
        </mxCell>
        <mxCell id="si8uyoqPotG8R0U7-kR5-27" value="Adding Space" style="ellipse;whiteSpace=wrap;html=1;fontSize=14;fontColor=#E01B84;strokeColor=#283592;strokeWidth=2;fillColor=#C0C8FF;" vertex="1" parent="1">
          <mxGeometry x="361" y="439" width="120" height="60" as="geometry" />
        </mxCell>
        <mxCell id="si8uyoqPotG8R0U7-kR5-28" value="Application submittion&lt;span style=&quot;color: rgba(0, 0, 0, 0); font-family: monospace; font-size: 0px; text-align: start;&quot;&gt;%3CmxGraphModel%3E%3Croot%3E%3CmxCell%20id%3D%220%22%2F%3E%3CmxCell%20id%3D%221%22%20parent%3D%220%22%2F%3E%3CmxCell%20id%3D%222%22%20value%3D%22%22%20style%3D%22group%22%20vertex%3D%221%22%20connectable%3D%220%22%20parent%3D%221%22%3E%3CmxGeometry%20x%3D%22161%22%20y%3D%2240%22%20width%3D%22520%22%20height%3D%221090%22%20as%3D%22geometry%22%2F%3E%3C%2FmxCell%3E%3CmxCell%20id%3D%223%22%20value%3D%22%22%20style%3D%22rounded%3D0%3BwhiteSpace%3Dwrap%3Bhtml%3D1%3BfillColor%3Dnone%3BstrokeColor%3D%23283592%3BstrokeWidth%3D2%3B%22%20vertex%3D%221%22%20parent%3D%222%22%3E%3CmxGeometry%20width%3D%22520%22%20height%3D%221090%22%20as%3D%22geometry%22%2F%3E%3C%2FmxCell%3E%3CmxCell%20id%3D%224%22%20value%3D%22CoworkClub%22%20style%3D%22text%3Bhtml%3D1%3BstrokeColor%3Dnone%3BfillColor%3Dnone%3Balign%3Dcenter%3BverticalAlign%3Dmiddle%3BwhiteSpace%3Dwrap%3Brounded%3D0%3BfontColor%3D%23E01B84%3BfontStyle%3D1%3BfontSize%3D20%3B%22%20vertex%3D%221%22%20parent%3D%222%22%3E%3CmxGeometry%20x%3D%22196%22%20y%3D%2210%22%20width%3D%22128%22%20height%3D%2230%22%20as%3D%22geometry%22%2F%3E%3C%2FmxCell%3E%3CmxCell%20id%3D%225%22%20style%3D%22rounded%3D0%3BorthogonalLoop%3D1%3BjettySize%3Dauto%3Bhtml%3D1%3BexitX%3D1%3BexitY%3D1%3BexitDx%3D0%3BexitDy%3D0%3BentryX%3D0%3BentryY%3D0%3BentryDx%3D0%3BentryDy%3D0%3BfontSize%3D14%3BfontColor%3D%23E01B84%3BstrokeColor%3D%23283592%3BendArrow%3Dnone%3BendFill%3D0%3BstartArrow%3Dopen%3BstartFill%3D0%3Bdashed%3D1%3B%22%20edge%3D%221%22%20parent%3D%222%22%20source%3D%229%22%20target%3D%2210%22%3E%3CmxGeometry%20relative%3D%221%22%20as%3D%22geometry%22%2F%3E%3C%2FmxCell%3E%3CmxCell%20id%3D%226%22%20value%3D%22%C2%ABinclude%C2%BB%22%20style%3D%22edgeLabel%3Bhtml%3D1%3Balign%3Dcenter%3BverticalAlign%3Dmiddle%3Bresizable%3D0%3Bpoints%3D%5B%5D%3BfontSize%3D14%3BfontColor%3D%23E01B84%3B%22%20vertex%3D%221%22%20connectable%3D%220%22%20parent%3D%225%22%3E%3CmxGeometry%20x%3D%220.1907%22%20relative%3D%221%22%20as%3D%22geometry%22%3E%3CmxPoint%20as%3D%22offset%22%2F%3E%3C%2FmxGeometry%3E%3C%2FmxCell%3E%3CmxCell%20id%3D%227%22%20style%3D%22edgeStyle%3Dnone%3Brounded%3D0%3BorthogonalLoop%3D1%3BjettySize%3Dauto%3Bhtml%3D1%3BexitX%3D0%3BexitY%3D1%3BexitDx%3D0%3BexitDy%3D0%3BentryX%3D1%3BentryY%3D0%3BentryDx%3D0%3BentryDy%3D0%3BfontSize%3D14%3BfontColor%3D%23E01B84%3BstartArrow%3Dopen%3BstartFill%3D0%3BendArrow%3Dnone%3BendFill%3D0%3BstrokeColor%3D%23283592%3Bdashed%3D1%3B%22%20edge%3D%221%22%20parent%3D%222%22%20source%3D%229%22%20target%3D%2211%22%3E%3CmxGeometry%20relative%3D%221%22%20as%3D%22geometry%22%2F%3E%3C%2FmxCell%3E%3CmxCell%20id%3D%228%22%20value%3D%22%C2%ABextends%C2%BB%22%20style%3D%22edgeLabel%3Bhtml%3D1%3Balign%3Dcenter%3BverticalAlign%3Dmiddle%3Bresizable%3D0%3Bpoints%3D%5B%5D%3BfontSize%3D14%3BfontColor%3D%23E01B84%3B%22%20vertex%3D%221%22%20connectable%3D%220%22%20parent%3D%227%22%3E%3CmxGeometry%20x%3D%220.532%22%20y%3D%22-2%22%20relative%3D%221%22%20as%3D%22geometry%22%3E%3CmxPoint%20x%3D%222%22%20y%3D%22-10%22%20as%3D%22offset%22%2F%3E%3C%2FmxGeometry%3E%3C%2FmxCell%3E%3CmxCell%20id%3D%229%22%20value%3D%22Search%20for%26lt%3Bbr%26gt%3BSpace%22%20style%3D%22ellipse%3BwhiteSpace%3Dwrap%3Bhtml%3D1%3BfontSize%3D14%3BfontColor%3D%23E01B84%3BstrokeColor%3D%23283592%3BstrokeWidth%3D2%3BfillColor%3D%23C0C8FF%3B%22%20vertex%3D%221%22%20parent%3D%222%22%3E%3CmxGeometry%20x%3D%22200%22%20y%3D%2295%22%20width%3D%22120%22%20height%3D%2260%22%20as%3D%22geometry%22%2F%3E%3C%2FmxCell%3E%3CmxCell%20id%3D%2210%22%20value%3D%22Specify%20search%26lt%3Bbr%26gt%3Bparameters%22%20style%3D%22ellipse%3BwhiteSpace%3Dwrap%3Bhtml%3D1%3BfontSize%3D14%3BfontColor%3D%23E01B84%3BstrokeColor%3D%23283592%3BstrokeWidth%3D2%3BfillColor%3D%23C0C8FF%3B%22%20vertex%3D%221%22%20parent%3D%222%22%3E%3CmxGeometry%20x%3D%22320%22%20y%3D%22180%22%20width%3D%22120%22%20height%3D%2260%22%20as%3D%22geometry%22%2F%3E%3C%2FmxCell%3E%3CmxCell%20id%3D%2211%22%20value%3D%22Filter%20the%20results%22%20style%3D%22ellipse%3BwhiteSpace%3Dwrap%3Bhtml%3D1%3BfontSize%3D14%3BfontColor%3D%23E01B84%3BstrokeColor%3D%23283592%3BstrokeWidth%3D2%3BfillColor%3D%23C0C8FF%3B%22%20vertex%3D%221%22%20parent%3D%222%22%3E%3CmxGeometry%20x%3D%2280%22%20y%3D%22180%22%20width%3D%22120%22%20height%3D%2260%22%20as%3D%22geometry%22%2F%3E%3C%2FmxCell%3E%3CmxCell%20id%3D%2212%22%20value%3D%22Compare%20results%22%20style%3D%22ellipse%3BwhiteSpace%3Dwrap%3Bhtml%3D1%3BfontSize%3D14%3BfontColor%3D%23E01B84%3BstrokeColor%3D%23283592%3BstrokeWidth%3D2%3BfillColor%3D%23C0C8FF%3B%22%20vertex%3D%221%22%20parent%3D%222%22%3E%3CmxGeometry%20x%3D%22200%22%20y%3D%22260%22%20width%3D%22120%22%20height%3D%2260%22%20as%3D%22geometry%22%2F%3E%3C%2FmxCell%3E%3CmxCell%20id%3D%2213%22%20style%3D%22edgeStyle%3Dnone%3Brounded%3D0%3BorthogonalLoop%3D1%3BjettySize%3Dauto%3Bhtml%3D1%3BexitX%3D0.5%3BexitY%3D1%3BexitDx%3D0%3BexitDy%3D0%3BentryX%3D0.5%3BentryY%3D0%3BentryDx%3D0%3BentryDy%3D0%3BfontSize%3D14%3BfontColor%3D%23E01B84%3BstartArrow%3Dopen%3BstartFill%3D0%3BendArrow%3Dnone%3BendFill%3D0%3BstrokeColor%3D%23283592%3Bdashed%3D1%3B%22%20edge%3D%221%22%20parent%3D%222%22%20source%3D%229%22%20target%3D%2212%22%3E%3CmxGeometry%20relative%3D%221%22%20as%3D%22geometry%22%3E%3CmxPoint%20x%3D%22189%22%20y%3D%22165%22%20as%3D%22sourcePoint%22%2F%3E%3CmxPoint%20x%3D%22146%22%20y%3D%22250.00000000000023%22%20as%3D%22targetPoint%22%2F%3E%3C%2FmxGeometry%3E%3C%2FmxCell%3E%3CmxCell%20id%3D%2214%22%20value%3D%22%C2%ABextends%C2%BB%22%20style%3D%22edgeLabel%3Bhtml%3D1%3Balign%3Dcenter%3BverticalAlign%3Dmiddle%3Bresizable%3D0%3Bpoints%3D%5B%5D%3BfontSize%3D14%3BfontColor%3D%23E01B84%3B%22%20vertex%3D%221%22%20connectable%3D%220%22%20parent%3D%2213%22%3E%3CmxGeometry%20x%3D%220.532%22%20y%3D%22-2%22%20relative%3D%221%22%20as%3D%22geometry%22%3E%3CmxPoint%20x%3D%223%22%20y%3D%22-6%22%20as%3D%22offset%22%2F%3E%3C%2FmxGeometry%3E%3C%2FmxCell%3E%3CmxCell%20id%3D%2215%22%20value%3D%22Profile%20management%22%20style%3D%22ellipse%3BwhiteSpace%3Dwrap%3Bhtml%3D1%3BfontSize%3D14%3BfontColor%3D%23E01B84%3BstrokeColor%3D%23283592%3BstrokeWidth%3D2%3BfillColor%3D%23C0C8FF%3B%22%20vertex%3D%221%22%20parent%3D%222%22%3E%3CmxGeometry%20x%3D%2280%22%20y%3D%22340%22%20width%3D%22120%22%20height%3D%2260%22%20as%3D%22geometry%22%2F%3E%3C%2FmxCell%3E%3CmxCell%20id%3D%2216%22%20value%3D%22Adding%20Space%22%20style%3D%22ellipse%3BwhiteSpace%3Dwrap%3Bhtml%3D1%3BfontSize%3D14%3BfontColor%3D%23E01B84%3BstrokeColor%3D%23283592%3BstrokeWidth%3D2%3BfillColor%3D%23C0C8FF%3B%22%20vertex%3D%221%22%20parent%3D%222%22%3E%3CmxGeometry%20x%3D%22200%22%20y%3D%22460%22%20width%3D%22120%22%20height%3D%2260%22%20as%3D%22geometry%22%2F%3E%3C%2FmxCell%3E%3CmxCell%20id%3D%2217%22%20value%3D%22Application%20submittion%22%20style%3D%22ellipse%3BwhiteSpace%3Dwrap%3Bhtml%3D1%3BfontSize%3D14%3BfontColor%3D%23E01B84%3BstrokeColor%3D%23283592%3BstrokeWidth%3D2%3BfillColor%3D%23C0C8FF%3B%22%20vertex%3D%221%22%20parent%3D%222%22%3E%3CmxGeometry%20x%3D%2276%22%20y%3D%22540%22%20width%3D%22120%22%20height%3D%2260%22%20as%3D%22geometry%22%2F%3E%3C%2FmxCell%3E%3CmxCell%20id%3D%2218%22%20style%3D%22rounded%3D0%3BorthogonalLoop%3D1%3BjettySize%3Dauto%3Bhtml%3D1%3BexitX%3D0%3BexitY%3D1%3BexitDx%3D0%3BexitDy%3D0%3BentryX%3D1%3BentryY%3D0%3BentryDx%3D0%3BentryDy%3D0%3BfontSize%3D14%3BfontColor%3D%23E01B84%3BstrokeColor%3D%23283592%3BendArrow%3Dnone%3BendFill%3D0%3BstartArrow%3Dopen%3BstartFill%3D0%3Bdashed%3D1%3B%22%20edge%3D%221%22%20parent%3D%222%22%20source%3D%2216%22%20target%3D%2217%22%3E%3CmxGeometry%20relative%3D%221%22%20as%3D%22geometry%22%3E%3CmxPoint%20x%3D%22362.42640687119297%22%20y%3D%22268.7132034355966%22%20as%3D%22sourcePoint%22%2F%3E%3CmxPoint%20x%3D%22397.57359312880703%22%20y%3D%22311.2867965644034%22%20as%3D%22targetPoint%22%2F%3E%3C%2FmxGeometry%3E%3C%2FmxCell%3E%3CmxCell%20id%3D%2219%22%20value%3D%22%C2%ABinclude%C2%BB%22%20style%3D%22edgeLabel%3Bhtml%3D1%3Balign%3Dcenter%3BverticalAlign%3Dmiddle%3Bresizable%3D0%3Bpoints%3D%5B%5D%3BfontSize%3D14%3BfontColor%3D%23E01B84%3B%22%20vertex%3D%221%22%20connectable%3D%220%22%20parent%3D%2218%22%3E%3CmxGeometry%20x%3D%220.1907%22%20relative%3D%221%22%20as%3D%22geometry%22%3E%3CmxPoint%20as%3D%22offset%22%2F%3E%3C%2FmxGeometry%3E%3C%2FmxCell%3E%3CmxCell%20id%3D%2220%22%20value%3D%22Access%20to%20management%26lt%3Bbr%26gt%3Bdashboard%22%20style%3D%22ellipse%3BwhiteSpace%3Dwrap%3Bhtml%3D1%3BfontSize%3D14%3BfontColor%3D%23E01B84%3BstrokeColor%3D%23283592%3BstrokeWidth%3D2%3BfillColor%3D%23C0C8FF%3B%22%20vertex%3D%221%22%20parent%3D%222%22%3E%3CmxGeometry%20x%3D%22320%22%20y%3D%22540%22%20width%3D%22120%22%20height%3D%2260%22%20as%3D%22geometry%22%2F%3E%3C%2FmxCell%3E%3CmxCell%20id%3D%2221%22%20style%3D%22edgeStyle%3Dnone%3Brounded%3D0%3BorthogonalLoop%3D1%3BjettySize%3Dauto%3Bhtml%3D1%3BexitX%3D1%3BexitY%3D1%3BexitDx%3D0%3BexitDy%3D0%3BentryX%3D0%3BentryY%3D0%3BentryDx%3D0%3BentryDy%3D0%3BfontSize%3D14%3BfontColor%3D%23E01B84%3BstartArrow%3Dopen%3BstartFill%3D0%3BendArrow%3Dnone%3BendFill%3D0%3BstrokeColor%3D%23283592%3Bdashed%3D1%3B%22%20edge%3D%221%22%20parent%3D%222%22%20source%3D%2216%22%20target%3D%2220%22%3E%3CmxGeometry%20relative%3D%221%22%20as%3D%22geometry%22%3E%3CmxPoint%20x%3D%22270%22%20y%3D%22165%22%20as%3D%22sourcePoint%22%2F%3E%3CmxPoint%20x%3D%22270%22%20y%3D%22270%22%20as%3D%22targetPoint%22%2F%3E%3C%2FmxGeometry%3E%3C%2FmxCell%3E%3CmxCell%20id%3D%2222%22%20value%3D%22%C2%ABextends%C2%BB%22%20style%3D%22edgeLabel%3Bhtml%3D1%3Balign%3Dcenter%3BverticalAlign%3Dmiddle%3Bresizable%3D0%3Bpoints%3D%5B%5D%3BfontSize%3D14%3BfontColor%3D%23E01B84%3B%22%20vertex%3D%221%22%20connectable%3D%220%22%20parent%3D%2221%22%3E%3CmxGeometry%20x%3D%220.532%22%20y%3D%22-2%22%20relative%3D%221%22%20as%3D%22geometry%22%3E%3CmxPoint%20x%3D%22-19%22%20y%3D%22-6%22%20as%3D%22offset%22%2F%3E%3C%2FmxGeometry%3E%3C%2FmxCell%3E%3C%2Froot%3E%3C%2FmxGraphModel%3E&lt;/span&gt;" style="ellipse;whiteSpace=wrap;html=1;fontSize=14;fontColor=#E01B84;strokeColor=#283592;strokeWidth=2;fillColor=#C0C8FF;" vertex="1" parent="1">
          <mxGeometry x="237" y="519" width="120" height="60" as="geometry" />
        </mxCell>
        <mxCell id="si8uyoqPotG8R0U7-kR5-29" style="rounded=0;orthogonalLoop=1;jettySize=auto;html=1;exitX=0;exitY=1;exitDx=0;exitDy=0;entryX=1;entryY=0;entryDx=0;entryDy=0;fontSize=14;fontColor=#E01B84;strokeColor=#283592;endArrow=none;endFill=0;startArrow=open;startFill=0;dashed=1;" edge="1" parent="1" source="si8uyoqPotG8R0U7-kR5-27" target="si8uyoqPotG8R0U7-kR5-28">
          <mxGeometry relative="1" as="geometry">
            <mxPoint x="523.426406871193" y="307.7132034355966" as="sourcePoint" />
            <mxPoint x="558.573593128807" y="350.2867965644034" as="targetPoint" />
          </mxGeometry>
        </mxCell>
        <mxCell id="si8uyoqPotG8R0U7-kR5-30" value="«include»" style="edgeLabel;html=1;align=center;verticalAlign=middle;resizable=0;points=[];fontSize=14;fontColor=#E01B84;" vertex="1" connectable="0" parent="si8uyoqPotG8R0U7-kR5-29">
          <mxGeometry x="0.1907" relative="1" as="geometry">
            <mxPoint as="offset" />
          </mxGeometry>
        </mxCell>
        <mxCell id="si8uyoqPotG8R0U7-kR5-33" value="Access to management&lt;br&gt;dashboard" style="ellipse;whiteSpace=wrap;html=1;fontSize=14;fontColor=#E01B84;strokeColor=#283592;strokeWidth=2;fillColor=#C0C8FF;" vertex="1" parent="1">
          <mxGeometry x="481" y="519" width="120" height="60" as="geometry" />
        </mxCell>
        <mxCell id="si8uyoqPotG8R0U7-kR5-34" style="edgeStyle=none;rounded=0;orthogonalLoop=1;jettySize=auto;html=1;exitX=1;exitY=1;exitDx=0;exitDy=0;entryX=0;entryY=0;entryDx=0;entryDy=0;fontSize=14;fontColor=#E01B84;startArrow=open;startFill=0;endArrow=none;endFill=0;strokeColor=#283592;dashed=1;" edge="1" parent="1" source="si8uyoqPotG8R0U7-kR5-27" target="si8uyoqPotG8R0U7-kR5-33">
          <mxGeometry relative="1" as="geometry">
            <mxPoint x="431" y="204" as="sourcePoint" />
            <mxPoint x="431" y="309" as="targetPoint" />
          </mxGeometry>
        </mxCell>
        <mxCell id="si8uyoqPotG8R0U7-kR5-35" value="«extends»" style="edgeLabel;html=1;align=center;verticalAlign=middle;resizable=0;points=[];fontSize=14;fontColor=#E01B84;" vertex="1" connectable="0" parent="si8uyoqPotG8R0U7-kR5-34">
          <mxGeometry x="0.532" y="-2" relative="1" as="geometry">
            <mxPoint x="-19" y="-6" as="offset" />
          </mxGeometry>
        </mxCell>
        <mxCell id="si8uyoqPotG8R0U7-kR5-39" value="Update&lt;br&gt;work-days calendar" style="ellipse;whiteSpace=wrap;html=1;fontSize=14;fontColor=#E01B84;strokeColor=#283592;strokeWidth=2;fillColor=#C0C8FF;" vertex="1" parent="1">
          <mxGeometry x="241" y="619" width="120" height="60" as="geometry" />
        </mxCell>
        <mxCell id="si8uyoqPotG8R0U7-kR5-37" style="edgeStyle=none;rounded=0;orthogonalLoop=1;jettySize=auto;html=1;exitX=0;exitY=1;exitDx=0;exitDy=0;entryX=1;entryY=0;entryDx=0;entryDy=0;fontSize=14;fontColor=#E01B84;startArrow=open;startFill=0;endArrow=none;endFill=0;strokeColor=#283592;dashed=1;" edge="1" parent="1" source="si8uyoqPotG8R0U7-kR5-33" target="si8uyoqPotG8R0U7-kR5-39">
          <mxGeometry relative="1" as="geometry">
            <mxPoint x="550" y="809" as="sourcePoint" />
            <mxPoint x="550" y="914" as="targetPoint" />
          </mxGeometry>
        </mxCell>
        <mxCell id="si8uyoqPotG8R0U7-kR5-38" value="«extends»" style="edgeLabel;html=1;align=center;verticalAlign=middle;resizable=0;points=[];fontSize=14;fontColor=#E01B84;" vertex="1" connectable="0" parent="si8uyoqPotG8R0U7-kR5-37">
          <mxGeometry x="0.532" y="-2" relative="1" as="geometry">
            <mxPoint x="3" y="-6" as="offset" />
          </mxGeometry>
        </mxCell>
        <mxCell id="si8uyoqPotG8R0U7-kR5-40" value="Alter space&lt;br&gt;specifications" style="ellipse;whiteSpace=wrap;html=1;fontSize=14;fontColor=#E01B84;strokeColor=#283592;strokeWidth=2;fillColor=#C0C8FF;" vertex="1" parent="1">
          <mxGeometry x="480" y="619" width="120" height="60" as="geometry" />
        </mxCell>
        <mxCell id="si8uyoqPotG8R0U7-kR5-41" style="edgeStyle=none;rounded=0;orthogonalLoop=1;jettySize=auto;html=1;exitX=0.5;exitY=1;exitDx=0;exitDy=0;entryX=0.5;entryY=0;entryDx=0;entryDy=0;fontSize=14;fontColor=#E01B84;startArrow=open;startFill=0;endArrow=none;endFill=0;strokeColor=#283592;dashed=1;" edge="1" parent="1" source="si8uyoqPotG8R0U7-kR5-33" target="si8uyoqPotG8R0U7-kR5-40">
          <mxGeometry relative="1" as="geometry">
            <mxPoint x="508.1998141091135" y="640.0246527183303" as="sourcePoint" />
            <mxPoint x="353.80018589088775" y="697.9753472816692" as="targetPoint" />
          </mxGeometry>
        </mxCell>
        <mxCell id="si8uyoqPotG8R0U7-kR5-42" value="«extends»" style="edgeLabel;html=1;align=center;verticalAlign=middle;resizable=0;points=[];fontSize=14;fontColor=#E01B84;" vertex="1" connectable="0" parent="si8uyoqPotG8R0U7-kR5-41">
          <mxGeometry x="0.532" y="-2" relative="1" as="geometry">
            <mxPoint x="3" y="-6" as="offset" />
          </mxGeometry>
        </mxCell>
        <mxCell id="si8uyoqPotG8R0U7-kR5-43" value="Study user trends" style="ellipse;whiteSpace=wrap;html=1;fontSize=14;fontColor=#E01B84;strokeColor=#283592;strokeWidth=2;fillColor=#C0C8FF;" vertex="1" parent="1">
          <mxGeometry x="361" y="699" width="120" height="60" as="geometry" />
        </mxCell>
        <mxCell id="si8uyoqPotG8R0U7-kR5-47" value="Alerts" style="ellipse;whiteSpace=wrap;html=1;fontSize=14;fontColor=#E01B84;strokeColor=#283592;strokeWidth=2;fillColor=#C0C8FF;" vertex="1" parent="1">
          <mxGeometry x="480" y="790" width="120" height="60" as="geometry" />
        </mxCell>
        <mxCell id="si8uyoqPotG8R0U7-kR5-50" value="Booking&lt;span style=&quot;color: rgba(0, 0, 0, 0); font-family: monospace; font-size: 0px; text-align: start;&quot;&gt;%3CmxGraphModel%3E%3Croot%3E%3CmxCell%20id%3D%220%22%2F%3E%3CmxCell%20id%3D%221%22%20parent%3D%220%22%2F%3E%3CmxCell%20id%3D%222%22%20value%3D%22Booking%20alteratitions%22%20style%3D%22ellipse%3BwhiteSpace%3Dwrap%3Bhtml%3D1%3BfontSize%3D14%3BfontColor%3D%23E01B84%3BstrokeColor%3D%23283592%3BstrokeWidth%3D2%3BfillColor%3D%23C0C8FF%3B%22%20vertex%3D%221%22%20parent%3D%221%22%3E%3CmxGeometry%20x%3D%22360%22%20y%3D%22880%22%20width%3D%22120%22%20height%3D%2260%22%20as%3D%22geometry%22%2F%3E%3C%2FmxCell%3E%3C%2Froot%3E%3C%2FmxGraphModel%3E&lt;/span&gt;&lt;span style=&quot;color: rgba(0, 0, 0, 0); font-family: monospace; font-size: 0px; text-align: start;&quot;&gt;%3CmxGraphModel%3E%3Croot%3E%3CmxCell%20id%3D%220%22%2F%3E%3CmxCell%20id%3D%221%22%20parent%3D%220%22%2F%3E%3CmxCell%20id%3D%222%22%20value%3D%22Booking%20alteratitions%22%20style%3D%22ellipse%3BwhiteSpace%3Dwrap%3Bhtml%3D1%3BfontSize%3D14%3BfontColor%3D%23E01B84%3BstrokeColor%3D%23283592%3BstrokeWidth%3D2%3BfillColor%3D%23C0C8FF%3B%22%20vertex%3D%221%22%20parent%3D%221%22%3E%3CmxGeometry%20x%3D%22360%22%20y%3D%22880%22%20width%3D%22120%22%20height%3D%2260%22%20as%3D%22geometry%22%2F%3E%3C%2FmxCell%3E%3C%2Froot%3E%3C%2FmxGraphModel%3E&lt;/span&gt;&lt;br&gt;&amp;nbsp;alteratitions" style="ellipse;whiteSpace=wrap;html=1;fontSize=14;fontColor=#E01B84;strokeColor=#283592;strokeWidth=2;fillColor=#C0C8FF;" vertex="1" parent="1">
          <mxGeometry x="361" y="850" width="120" height="60" as="geometry" />
        </mxCell>
        <mxCell id="si8uyoqPotG8R0U7-kR5-53" value="Exchange messages" style="ellipse;whiteSpace=wrap;html=1;fontSize=14;fontColor=#E01B84;strokeColor=#283592;strokeWidth=2;fillColor=#C0C8FF;" vertex="1" parent="1">
          <mxGeometry x="480" y="890" width="120" height="60" as="geometry" />
        </mxCell>
        <mxCell id="si8uyoqPotG8R0U7-kR5-56" value="Booking" style="ellipse;whiteSpace=wrap;html=1;fontSize=14;fontColor=#E01B84;strokeColor=#283592;strokeWidth=2;fillColor=#C0C8FF;" vertex="1" parent="1">
          <mxGeometry x="237" y="940" width="120" height="60" as="geometry" />
        </mxCell>
        <mxCell id="si8uyoqPotG8R0U7-kR5-57" value="Select a&lt;br&gt;date and time" style="ellipse;whiteSpace=wrap;html=1;fontSize=14;fontColor=#E01B84;strokeColor=#283592;strokeWidth=2;fillColor=#C0C8FF;" vertex="1" parent="1">
          <mxGeometry x="480" y="960" width="120" height="60" as="geometry" />
        </mxCell>
        <mxCell id="si8uyoqPotG8R0U7-kR5-58" style="rounded=0;orthogonalLoop=1;jettySize=auto;html=1;exitX=1;exitY=0.5;exitDx=0;exitDy=0;entryX=0;entryY=0.5;entryDx=0;entryDy=0;fontSize=14;fontColor=#E01B84;strokeColor=#283592;endArrow=none;endFill=0;startArrow=open;startFill=0;dashed=1;" edge="1" parent="1" source="si8uyoqPotG8R0U7-kR5-56" target="si8uyoqPotG8R0U7-kR5-57">
          <mxGeometry relative="1" as="geometry">
            <mxPoint x="388.57359312880726" y="500.2132034355966" as="sourcePoint" />
            <mxPoint x="349.42640687119274" y="537.7867965644036" as="targetPoint" />
          </mxGeometry>
        </mxCell>
        <mxCell id="si8uyoqPotG8R0U7-kR5-59" value="«include»" style="edgeLabel;html=1;align=center;verticalAlign=middle;resizable=0;points=[];fontSize=14;fontColor=#E01B84;" vertex="1" connectable="0" parent="si8uyoqPotG8R0U7-kR5-58">
          <mxGeometry x="0.1907" relative="1" as="geometry">
            <mxPoint as="offset" />
          </mxGeometry>
        </mxCell>
        <mxCell id="si8uyoqPotG8R0U7-kR5-60" value="Payment" style="ellipse;whiteSpace=wrap;html=1;fontSize=14;fontColor=#E01B84;strokeColor=#283592;strokeWidth=2;fillColor=#C0C8FF;" vertex="1" parent="1">
          <mxGeometry x="360" y="1020" width="120" height="60" as="geometry" />
        </mxCell>
        <mxCell id="si8uyoqPotG8R0U7-kR5-61" style="rounded=0;orthogonalLoop=1;jettySize=auto;html=1;exitX=1;exitY=1;exitDx=0;exitDy=0;entryX=0;entryY=0;entryDx=0;entryDy=0;fontSize=14;fontColor=#E01B84;strokeColor=#283592;endArrow=none;endFill=0;startArrow=open;startFill=0;dashed=1;" edge="1" parent="1" source="si8uyoqPotG8R0U7-kR5-56" target="si8uyoqPotG8R0U7-kR5-60">
          <mxGeometry relative="1" as="geometry">
            <mxPoint x="367" y="980" as="sourcePoint" />
            <mxPoint x="490.0000000000023" y="1000" as="targetPoint" />
          </mxGeometry>
        </mxCell>
        <mxCell id="si8uyoqPotG8R0U7-kR5-62" value="«include»" style="edgeLabel;html=1;align=center;verticalAlign=middle;resizable=0;points=[];fontSize=14;fontColor=#E01B84;" vertex="1" connectable="0" parent="si8uyoqPotG8R0U7-kR5-61">
          <mxGeometry x="0.1907" relative="1" as="geometry">
            <mxPoint x="-1" y="-3" as="offset" />
          </mxGeometry>
        </mxCell>
        <mxCell id="si8uyoqPotG8R0U7-kR5-70" style="edgeStyle=orthogonalEdgeStyle;rounded=0;orthogonalLoop=1;jettySize=auto;html=1;exitX=0.5;exitY=0.5;exitDx=0;exitDy=0;exitPerimeter=0;entryX=1;entryY=0.5;entryDx=0;entryDy=0;fontSize=14;fontColor=#E01B84;startArrow=none;startFill=0;endArrow=none;endFill=0;strokeColor=#E01B84;" edge="1" parent="1" source="si8uyoqPotG8R0U7-kR5-69" target="si8uyoqPotG8R0U7-kR5-60">
          <mxGeometry relative="1" as="geometry" />
        </mxCell>
        <mxCell id="si8uyoqPotG8R0U7-kR5-69" value="Payment&lt;br&gt;Service&lt;br&gt;Provider" style="shape=umlActor;verticalLabelPosition=bottom;verticalAlign=top;html=1;outlineConnect=0;fontSize=14;fontColor=#E01B84;strokeColor=#283592;strokeWidth=2;fillColor=#C0C8FF;" vertex="1" parent="1">
          <mxGeometry x="720" y="1015" width="40" height="70" as="geometry" />
        </mxCell>
        <mxCell id="si8uyoqPotG8R0U7-kR5-74" style="edgeStyle=orthogonalEdgeStyle;rounded=0;orthogonalLoop=1;jettySize=auto;html=1;exitX=0;exitY=0.5;exitDx=0;exitDy=0;entryX=0.5;entryY=0.5;entryDx=0;entryDy=0;entryPerimeter=0;fontSize=14;fontColor=#E01B84;startArrow=none;startFill=0;endArrow=none;endFill=0;strokeColor=#E01B84;" edge="1" parent="1" source="si8uyoqPotG8R0U7-kR5-73" target="si8uyoqPotG8R0U7-kR5-6">
          <mxGeometry relative="1" as="geometry">
            <Array as="points">
              <mxPoint x="200" y="830" />
              <mxPoint x="200" y="585" />
            </Array>
          </mxGeometry>
        </mxCell>
        <mxCell id="si8uyoqPotG8R0U7-kR5-75" style="edgeStyle=orthogonalEdgeStyle;rounded=0;orthogonalLoop=1;jettySize=auto;html=1;exitX=1;exitY=0.5;exitDx=0;exitDy=0;entryX=0.5;entryY=0.5;entryDx=0;entryDy=0;entryPerimeter=0;fontSize=14;fontColor=#E01B84;startArrow=none;startFill=0;endArrow=none;endFill=0;strokeColor=#E01B84;" edge="1" parent="1" source="si8uyoqPotG8R0U7-kR5-73" target="si8uyoqPotG8R0U7-kR5-26">
          <mxGeometry relative="1" as="geometry">
            <Array as="points">
              <mxPoint x="480" y="830" />
              <mxPoint x="480" y="860" />
              <mxPoint x="640" y="860" />
              <mxPoint x="640" y="585" />
            </Array>
          </mxGeometry>
        </mxCell>
        <mxCell id="si8uyoqPotG8R0U7-kR5-73" value="Post Reviews" style="ellipse;whiteSpace=wrap;html=1;fontSize=14;fontColor=#E01B84;strokeColor=#283592;strokeWidth=2;fillColor=#C0C8FF;" vertex="1" parent="1">
          <mxGeometry x="240" y="800" width="120" height="60" as="geometry" />
        </mxCell>
      </root>
    </mxGraphModel>
  </diagram>
</mxfile>
